<svg xmlns="http://www.w3.org/2000/svg" xmlns:xlink="http://www.w3.org/1999/xlink" viewBox="0 0 800 561" width="800" height="561">
  <rect width="100%" height="100%" fill="#ffffff"/>
  <defs>
    <g id="x0a0"><radialGradient id="x0g0" cx=".5" cy=".5" fx=".33" fy=".33" r=".66"><stop offset="0%" stop-color="#fafafa"/><stop offset="40%" stop-color="#fafafa"/><stop offset="100%" stop-color="#b6a6ab"/></radialGradient><circle cx="0" cy="0" r="13.5" fill="url(#x0g0)" stroke="#000000" stroke-width="1.7"/></g>
    <g id="x0a1"><radialGradient id="x0g1" cx=".5" cy=".5" fx=".33" fy=".33" r=".66"><stop offset="0%" stop-color="#dcdcdc"/><stop offset="40%" stop-color="#d9d9d9"/><stop offset="100%" stop-color="#a28d93"/></radialGradient><circle cx="0" cy="0" r="25.7" fill="url(#x0g1)" stroke="#000000" stroke-width="1.7"/></g>
    <g id="x0a2"><radialGradient id="x0g2" cx=".5" cy=".5" fx=".33" fy=".33" r=".66"><stop offset="0%" stop-color="#dcdcdc"/><stop offset="40%" stop-color="#d9d9d9"/><stop offset="100%" stop-color="#a38e94"/></radialGradient><circle cx="0" cy="0" r="25.7" fill="url(#x0g2)" stroke="#050505" stroke-width="1.7"/></g>
    <g id="x0a3"><radialGradient id="x0g3" cx=".5" cy=".5" fx=".33" fy=".33" r=".66"><stop offset="0%" stop-color="#f44d30"/><stop offset="40%" stop-color="#ff0d0d"/><stop offset="100%" stop-color="#bb0038"/></radialGradient><circle cx="0" cy="0" r="23.0" fill="url(#x0g3)" stroke="#000000" stroke-width="1.7"/></g>
    <g id="x0a4"><radialGradient id="x0g4" cx=".5" cy=".5" fx=".33" fy=".33" r=".66"><stop offset="0%" stop-color="#f6745d"/><stop offset="40%" stop-color="#ff4242"/><stop offset="100%" stop-color="#c93863"/></radialGradient><circle cx="0" cy="0" r="23.0" fill="url(#x0g4)" stroke="#505050" stroke-width="1.7"/></g>
    <g id="x0a5"><radialGradient id="x0g5" cx=".5" cy=".5" fx=".33" fy=".33" r=".66"><stop offset="0%" stop-color="#fbfbfb"/><stop offset="40%" stop-color="#fbfbfb"/><stop offset="100%" stop-color="#c8bdc0"/></radialGradient><circle cx="0" cy="0" r="13.5" fill="url(#x0g5)" stroke="#5e5e5e" stroke-width="1.7"/></g>
    <g id="x0a6"><radialGradient id="x0g6" cx=".5" cy=".5" fx=".33" fy=".33" r=".66"><stop offset="0%" stop-color="#dedede"/><stop offset="40%" stop-color="#dbdbdb"/><stop offset="100%" stop-color="#a8959b"/></radialGradient><circle cx="0" cy="0" r="25.7" fill="url(#x0g6)" stroke="#1b1b1b" stroke-width="1.7"/></g>
    <g id="x0a7"><radialGradient id="x0g7" cx=".5" cy=".5" fx=".33" fy=".33" r=".66"><stop offset="0%" stop-color="#dcdcdc"/><stop offset="40%" stop-color="#d9d9d9"/><stop offset="100%" stop-color="#a38e94"/></radialGradient><circle cx="0" cy="0" r="25.7" fill="url(#x0g7)" stroke="#050505" stroke-width="1.7"/></g>
    <g id="x0a8"><radialGradient id="x0g8" cx=".5" cy=".5" fx=".33" fy=".33" r=".66"><stop offset="0%" stop-color="#fafafa"/><stop offset="40%" stop-color="#fafafa"/><stop offset="100%" stop-color="#bcadb2"/></radialGradient><circle cx="0" cy="0" r="13.5" fill="url(#x0g8)" stroke="#1f1f1f" stroke-width="1.7"/></g>
    <g id="x0a9"><radialGradient id="x0g9" cx=".5" cy=".5" fx=".33" fy=".33" r=".66"><stop offset="0%" stop-color="#8ea6c2"/><stop offset="40%" stop-color="#7f7fbf"/><stop offset="100%" stop-color="#42429b"/></radialGradient><circle cx="0" cy="0" r="24.2" fill="url(#x0g9)" stroke="#000000" stroke-width="1.7"/></g>
    <g id="x0a10"><radialGradient id="x0g10" cx=".5" cy=".5" fx=".33" fy=".33" r=".66"><stop offset="0%" stop-color="#fafafa"/><stop offset="40%" stop-color="#fafafa"/><stop offset="100%" stop-color="#bbacb1"/></radialGradient><circle cx="0" cy="0" r="13.5" fill="url(#x0g10)" stroke="#1a1a1a" stroke-width="1.7"/></g>
    <g id="x0a11"><radialGradient id="x0g11" cx=".5" cy=".5" fx=".33" fy=".33" r=".66"><stop offset="0%" stop-color="#fafafa"/><stop offset="40%" stop-color="#fafafa"/><stop offset="100%" stop-color="#b6a6ab"/></radialGradient><circle cx="0" cy="0" r="13.5" fill="url(#x0g11)" stroke="#000000" stroke-width="1.7"/></g>
    <g id="x0a12"><radialGradient id="x0g12" cx=".5" cy=".5" fx=".33" fy=".33" r=".66"><stop offset="0%" stop-color="#f44d30"/><stop offset="40%" stop-color="#ff0d0d"/><stop offset="100%" stop-color="#bb0038"/></radialGradient><circle cx="0" cy="0" r="23.0" fill="url(#x0g12)" stroke="#000000" stroke-width="1.7"/></g>
    <g id="x0a13"><radialGradient id="x0g13" cx=".5" cy=".5" fx=".33" fy=".33" r=".66"><stop offset="0%" stop-color="#98aec7"/><stop offset="40%" stop-color="#8b8bc5"/><stop offset="100%" stop-color="#5454a4"/></radialGradient><circle cx="0" cy="0" r="24.2" fill="url(#x0g13)" stroke="#232323" stroke-width="1.7"/></g>
    <g id="x0a14"><radialGradient id="x0g14" cx=".5" cy=".5" fx=".33" fy=".33" r=".66"><stop offset="0%" stop-color="#fbfbfb"/><stop offset="40%" stop-color="#fbfbfb"/><stop offset="100%" stop-color="#ccc1c5"/></radialGradient><circle cx="0" cy="0" r="13.5" fill="url(#x0g14)" stroke="#727272" stroke-width="1.7"/></g>
    <g id="x0a15"><radialGradient id="x0g15" cx=".5" cy=".5" fx=".33" fy=".33" r=".66"><stop offset="0%" stop-color="#fbfbfb"/><stop offset="40%" stop-color="#fbfbfb"/><stop offset="100%" stop-color="#cbc0c3"/></radialGradient><circle cx="0" cy="0" r="13.5" fill="url(#x0g15)" stroke="#6a6a6a" stroke-width="1.7"/></g>
    <g id="x0a16"><radialGradient id="x0g16" cx=".5" cy=".5" fx=".33" fy=".33" r=".66"><stop offset="0%" stop-color="#fafafa"/><stop offset="40%" stop-color="#fafafa"/><stop offset="100%" stop-color="#b9aaaf"/></radialGradient><circle cx="0" cy="0" r="13.5" fill="url(#x0g16)" stroke="#121212" stroke-width="1.7"/></g>
  </defs>
  <defs>
    <radialGradient id="x0vg1" cx=".5" cy=".5" fx=".33" fy=".33" r=".66"><stop offset="0%" stop-color="#fafafa"/><stop offset="100%" stop-color="#875e74"/></radialGradient>
    <radialGradient id="x0vg8" cx=".5" cy=".5" fx=".33" fy=".33" r=".66"><stop offset="0%" stop-color="#ff0d0d"/><stop offset="100%" stop-color="#7b0042"/></radialGradient>
    <radialGradient id="x0vg7" cx=".5" cy=".5" fx=".33" fy=".33" r=".66"><stop offset="0%" stop-color="#7f7fbf"/><stop offset="100%" stop-color="#27276a"/></radialGradient>
    <radialGradient id="x0vg6" cx=".5" cy=".5" fx=".33" fy=".33" r=".66"><stop offset="0%" stop-color="#d9d9d9"/><stop offset="100%" stop-color="#755165"/></radialGradient>
  </defs>
  <use x="391.7" y="254.0" xlink:href="#x0a14"/>
  <line x1="391.1" y1="249.6" x2="388.9" y2="233.6" stroke="#232323" stroke-width="11.3" stroke-linecap="round"/>
  <use x="234.3" y="315.0" xlink:href="#x0a15"/>
  <line x1="231.4" y1="309.2" x2="222.8" y2="291.5" stroke="#252525" stroke-width="11.3" stroke-linecap="round"/>
  <use x="650.0" y="266.4" xlink:href="#x0a5"/>
  <line x1="638.3" y1="269.4" x2="604.5" y2="278.2" stroke="#313131" stroke-width="11.3" stroke-linecap="round"/>
  <use x="584.7" y="283.3" xlink:href="#x0a4"/>
  <line x1="579.1" y1="277.9" x2="564.7" y2="264.1" stroke="#111111" stroke-width="11.3" stroke-linecap="round"/>
  <use x="217.7" y="281.1" xlink:href="#x0a13"/>
  <line x1="197.0" y1="281.3" x2="161.6" y2="281.7" stroke="#0e0e0e" stroke-width="11.3" stroke-linecap="round"/>
  <line x1="232.6" y1="269.0" x2="270.3" y2="238.4" stroke="#090909" stroke-width="11.3" stroke-linecap="round"/>
  <use x="412.3" y="149.8" xlink:href="#x0a8"/>
  <line x1="408.6" y1="161.3" x2="394.9" y2="203.3" stroke="#101010" stroke-width="11.3" stroke-linecap="round"/>
  <use x="387.8" y="225.2" xlink:href="#x0a6"/>
  <line x1="366.1" y1="225.3" x2="307.7" y2="225.5" stroke="#080808" stroke-width="11.3" stroke-linecap="round"/>
  <line x1="401.9" y1="236.8" x2="441.0" y2="268.9" stroke="#040404" stroke-width="11.3" stroke-linecap="round"/>
  <use x="439.4" y="411.2" xlink:href="#x0a10"/>
  <line x1="439.8" y1="406.9" x2="441.1" y2="393.5" stroke="#040404" stroke-width="11.3" stroke-linecap="round"/>
  <use x="150.0" y="281.8" xlink:href="#x0a16"/>
  <use x="286.1" y="225.6" xlink:href="#x0a7"/>
  <line x1="279.1" y1="214.0" x2="265.7" y2="192.0" stroke="#000000" stroke-width="11.3" stroke-linecap="round"/>
  <use x="558.5" y="258.1" xlink:href="#x0a2"/>
  <line x1="536.7" y1="262.8" x2="477.0" y2="275.8" stroke="#000000" stroke-width="11.3" stroke-linecap="round"/>
  <line x1="574.7" y1="247.7" x2="605.1" y2="228.3" stroke="#000000" stroke-width="11.3" stroke-linecap="round"/>
  <use x="455.1" y="280.5" xlink:href="#x0a1"/>
  <line x1="452.2" y1="303.4" x2="444.6" y2="364.2" stroke="#000000" stroke-width="11.3" stroke-linecap="round"/>
  <line x1="451.8" y1="273.3" x2="445.3" y2="259.1" stroke="#000000" stroke-width="11.3" stroke-linecap="round"/>
  <use x="441.8" y="385.7" xlink:href="#x0a9"/>
  <line x1="423.4" y1="390.7" x2="391.5" y2="399.3" stroke="#000000" stroke-width="11.3" stroke-linecap="round"/>
  <use x="619.7" y="218.9" xlink:href="#x0a3"/>
  <use x="381.2" y="402.0" xlink:href="#x0a11"/>
  <use x="259.4" y="181.6" xlink:href="#x0a12"/>
  <use x="443.6" y="255.3" xlink:href="#x0a0"/>
  <g opacity="0.25">
    <circle cx="391.7" cy="254.0" r="74.1" fill="url(#x0vg1)"/>
    <circle cx="234.3" cy="315.0" r="74.1" fill="url(#x0vg1)"/>
    <circle cx="650.0" cy="266.4" r="74.1" fill="url(#x0vg1)"/>
    <circle cx="584.7" cy="283.3" r="116.7" fill="url(#x0vg8)"/>
    <circle cx="217.7" cy="281.1" r="122.4" fill="url(#x0vg7)"/>
    <circle cx="412.3" cy="149.8" r="74.1" fill="url(#x0vg1)"/>
    <circle cx="387.8" cy="225.2" r="130.0" fill="url(#x0vg6)"/>
    <circle cx="439.4" cy="411.2" r="74.1" fill="url(#x0vg1)"/>
    <circle cx="150.0" cy="281.8" r="74.1" fill="url(#x0vg1)"/>
    <circle cx="286.1" cy="225.6" r="130.0" fill="url(#x0vg6)"/>
    <circle cx="558.5" cy="258.1" r="130.0" fill="url(#x0vg6)"/>
    <circle cx="455.1" cy="280.5" r="130.0" fill="url(#x0vg6)"/>
    <circle cx="441.8" cy="385.7" r="122.4" fill="url(#x0vg7)"/>
    <circle cx="619.7" cy="218.9" r="116.7" fill="url(#x0vg8)"/>
    <circle cx="381.2" cy="402.0" r="74.1" fill="url(#x0vg1)"/>
    <circle cx="259.4" cy="181.6" r="116.7" fill="url(#x0vg8)"/>
    <circle cx="443.6" cy="255.3" r="74.1" fill="url(#x0vg1)"/>
  </g>
</svg>