<svg xmlns="http://www.w3.org/2000/svg" xmlns:xlink="http://www.w3.org/1999/xlink" viewBox="0 0 800 757" width="800" height="757">
  <rect width="100%" height="100%" fill="#ffffff"/>
  <defs>
    <filter id="x0dof0" x="-50%" y="-50%" width="200%" height="200%"><feGaussianBlur stdDeviation="0.00"/></filter>
    <filter id="x0dof1" x="-50%" y="-50%" width="200%" height="200%"><feGaussianBlur stdDeviation="0.16"/></filter>
    <filter id="x0dof2" x="-50%" y="-50%" width="200%" height="200%"><feGaussianBlur stdDeviation="0.32"/></filter>
    <filter id="x0dof3" x="-50%" y="-50%" width="200%" height="200%"><feGaussianBlur stdDeviation="0.47"/></filter>
    <filter id="x0dof4" x="-50%" y="-50%" width="200%" height="200%"><feGaussianBlur stdDeviation="0.63"/></filter>
    <filter id="x0dof5" x="-50%" y="-50%" width="200%" height="200%"><feGaussianBlur stdDeviation="0.79"/></filter>
    <filter id="x0dof6" x="-50%" y="-50%" width="200%" height="200%"><feGaussianBlur stdDeviation="0.95"/></filter>
    <filter id="x0dof7" x="-50%" y="-50%" width="200%" height="200%"><feGaussianBlur stdDeviation="1.11"/></filter>
    <filter id="x0dof8" x="-50%" y="-50%" width="200%" height="200%"><feGaussianBlur stdDeviation="1.26"/></filter>
    <filter id="x0dof9" x="-50%" y="-50%" width="200%" height="200%"><feGaussianBlur stdDeviation="1.42"/></filter>
    <filter id="x0dof10" x="-50%" y="-50%" width="200%" height="200%"><feGaussianBlur stdDeviation="1.58"/></filter>
    <filter id="x0dof11" x="-50%" y="-50%" width="200%" height="200%"><feGaussianBlur stdDeviation="1.74"/></filter>
    <filter id="x0dof12" x="-50%" y="-50%" width="200%" height="200%"><feGaussianBlur stdDeviation="1.89"/></filter>
    <filter id="x0dof13" x="-50%" y="-50%" width="200%" height="200%"><feGaussianBlur stdDeviation="2.05"/></filter>
    <filter id="x0dof14" x="-50%" y="-50%" width="200%" height="200%"><feGaussianBlur stdDeviation="2.21"/></filter>
    <filter id="x0dof15" x="-50%" y="-50%" width="200%" height="200%"><feGaussianBlur stdDeviation="2.37"/></filter>
    <filter id="x0dof16" x="-50%" y="-50%" width="200%" height="200%"><feGaussianBlur stdDeviation="2.53"/></filter>
    <filter id="x0dof17" x="-50%" y="-50%" width="200%" height="200%"><feGaussianBlur stdDeviation="2.68"/></filter>
    <filter id="x0dof18" x="-50%" y="-50%" width="200%" height="200%"><feGaussianBlur stdDeviation="2.84"/></filter>
    <filter id="x0dof19" x="-50%" y="-50%" width="200%" height="200%"><feGaussianBlur stdDeviation="3.00"/></filter>
  </defs>
  <defs>
    <radialGradient id="x0g0" cx=".5" cy=".5" fx=".33" fy=".33" r=".66"><stop offset="0%" stop-color="#bebebe"/><stop offset="40%" stop-color="#b4b4b4"/><stop offset="100%" stop-color="#7c6369"/></radialGradient>
    <radialGradient id="x0g1" cx=".5" cy=".5" fx=".33" fy=".33" r=".66"><stop offset="0%" stop-color="#d5d5d5"/><stop offset="40%" stop-color="#cecece"/><stop offset="100%" stop-color="#ab9b9e"/></radialGradient>
    <radialGradient id="x0g2" cx=".5" cy=".5" fx=".33" fy=".33" r=".66"><stop offset="0%" stop-color="#bababa"/><stop offset="40%" stop-color="#aeaeae"/><stop offset="100%" stop-color="#73595e"/></radialGradient>
    <radialGradient id="x0g3" cx=".5" cy=".5" fx=".33" fy=".33" r=".66"><stop offset="0%" stop-color="#b6b6b6"/><stop offset="40%" stop-color="#aaaaaa"/><stop offset="100%" stop-color="#6b4f55"/></radialGradient>
    <radialGradient id="x0g4" cx=".5" cy=".5" fx=".33" fy=".33" r=".66"><stop offset="0%" stop-color="#c7c7c7"/><stop offset="40%" stop-color="#bebebe"/><stop offset="100%" stop-color="#8e787d"/></radialGradient>
    <radialGradient id="x0g5" cx=".5" cy=".5" fx=".33" fy=".33" r=".66"><stop offset="0%" stop-color="#b6b6b6"/><stop offset="40%" stop-color="#aaaaaa"/><stop offset="100%" stop-color="#6b4f55"/></radialGradient>
    <radialGradient id="x0g6" cx=".5" cy=".5" fx=".33" fy=".33" r=".66"><stop offset="0%" stop-color="#bcbcbc"/><stop offset="40%" stop-color="#b1b1b1"/><stop offset="100%" stop-color="#775d63"/></radialGradient>
    <radialGradient id="x0g7" cx=".5" cy=".5" fx=".33" fy=".33" r=".66"><stop offset="0%" stop-color="#b6b6b6"/><stop offset="40%" stop-color="#aaaaaa"/><stop offset="100%" stop-color="#6b4f55"/></radialGradient>
    <radialGradient id="x0g8" cx=".5" cy=".5" fx=".33" fy=".33" r=".66"><stop offset="0%" stop-color="#5b9bec"/><stop offset="40%" stop-color="#3050f8"/><stop offset="100%" stop-color="#041a9e"/></radialGradient>
    <radialGradient id="x0g9" cx=".5" cy=".5" fx=".33" fy=".33" r=".66"><stop offset="0%" stop-color="#84b4f0"/><stop offset="40%" stop-color="#647cf9"/><stop offset="100%" stop-color="#4353b6"/></radialGradient>
    <radialGradient id="x0g10" cx=".5" cy=".5" fx=".33" fy=".33" r=".66"><stop offset="0%" stop-color="#6ca5ee"/><stop offset="40%" stop-color="#4662f8"/><stop offset="100%" stop-color="#1f32a8"/></radialGradient>
    <radialGradient id="x0g11" cx=".5" cy=".5" fx=".33" fy=".33" r=".66"><stop offset="0%" stop-color="#5d9cec"/><stop offset="40%" stop-color="#3252f8"/><stop offset="100%" stop-color="#071c9f"/></radialGradient>
    <radialGradient id="x0g12" cx=".5" cy=".5" fx=".33" fy=".33" r=".66"><stop offset="0%" stop-color="#ef5240"/><stop offset="40%" stop-color="#ff0d0d"/><stop offset="100%" stop-color="#93001d"/></radialGradient>
    <radialGradient id="x0g13" cx=".5" cy=".5" fx=".33" fy=".33" r=".66"><stop offset="0%" stop-color="#f16a5b"/><stop offset="40%" stop-color="#ff2f2f"/><stop offset="100%" stop-color="#a2243d"/></radialGradient>
  </defs>
  <circle cx="488.3" cy="124.8" r="35.8" fill="url(#x0g1)" stroke="#9d9d9d" stroke-width="6.3" filter="url(#x0dof12)"/>
  <line x1="497.1" y1="149.6" x2="519.9" y2="213.9" stroke="#444444" stroke-width="15.8" stroke-linecap="round"/>
  <circle cx="528.2" cy="237.2" r="33.7" fill="url(#x0g9)" stroke="#5b5b5b" stroke-width="6.3" filter="url(#x0dof10)"/>
  <line x1="559.7" y1="240.4" x2="629.7" y2="270.1" stroke="#323232" stroke-width="11.0" stroke-linecap="round"/>
  <line x1="552.3" y1="257.8" x2="622.3" y2="287.5" stroke="#323232" stroke-width="11.0" stroke-linecap="round" stroke-dasharray="11.0,22.1"/>
  <line x1="516.3" y1="260.3" x2="469.3" y2="301.7" stroke="#242424" stroke-width="11.0" stroke-linecap="round" stroke-dasharray="11.0,22.1"/>
  <line x1="503.8" y1="246.1" x2="456.8" y2="287.5" stroke="#242424" stroke-width="11.0" stroke-linecap="round"/>
  <circle cx="655.6" cy="291.4" r="35.8" fill="url(#x0g4)" stroke="#565656" stroke-width="6.3" filter="url(#x0dof9)"/>
  <line x1="664.9" y1="316.3" x2="664.7" y2="372.7" stroke="#222222" stroke-width="11.0" stroke-linecap="round"/>
  <line x1="646.0" y1="316.2" x2="645.7" y2="372.6" stroke="#222222" stroke-width="11.0" stroke-linecap="round" stroke-dasharray="11.0,22.1"/>
  <circle cx="225.8" cy="216.5" r="32.1" fill="url(#x0g13)" stroke="#343434" stroke-width="6.3" filter="url(#x0dof7)"/>
  <line x1="250.8" y1="229.6" x2="288.9" y2="270.8" stroke="#171717" stroke-width="11.0" stroke-linecap="round"/>
  <line x1="236.9" y1="242.5" x2="275.1" y2="283.6" stroke="#171717" stroke-width="11.0" stroke-linecap="round"/>
  <circle cx="443.7" cy="311.6" r="35.8" fill="url(#x0g0)" stroke="#2b2b2b" stroke-width="6.3" filter="url(#x0dof7)"/>
  <line x1="412.3" y1="308.8" x2="333.6" y2="301.7" stroke="#141414" stroke-width="15.8" stroke-linecap="round"/>
  <line x1="469.8" y1="328.0" x2="513.9" y2="380.8" stroke="#111111" stroke-width="11.0" stroke-linecap="round" stroke-dasharray="11.0,22.1"/>
  <line x1="455.3" y1="340.2" x2="499.4" y2="392.9" stroke="#111111" stroke-width="11.0" stroke-linecap="round"/>
  <circle cx="655.1" cy="396.0" r="33.7" fill="url(#x0g10)" stroke="#272727" stroke-width="6.3" filter="url(#x0dof6)"/>
  <line x1="627.8" y1="408.3" x2="556.5" y2="415.7" stroke="#101010" stroke-width="11.0" stroke-linecap="round"/>
  <line x1="625.9" y1="389.5" x2="554.5" y2="396.9" stroke="#101010" stroke-width="11.0" stroke-linecap="round" stroke-dasharray="11.0,22.1"/>
  <circle cx="302.1" cy="298.9" r="35.8" fill="url(#x0g6)" stroke="#1e1e1e" stroke-width="6.3" filter="url(#x0dof6)"/>
  <line x1="291.3" y1="320.3" x2="264.0" y2="374.2" stroke="#080808" stroke-width="15.8" stroke-linecap="round"/>
  <circle cx="525.5" cy="409.4" r="35.8" fill="url(#x0g2)" stroke="#141414" stroke-width="6.3" filter="url(#x0dof5)"/>
  <line x1="514.7" y1="430.1" x2="488.4" y2="480.8" stroke="#040404" stroke-width="15.8" stroke-linecap="round"/>
  <circle cx="253.8" cy="394.3" r="33.7" fill="url(#x0g11)" stroke="#040404" stroke-width="6.3" filter="url(#x0dof2)"/>
  <line x1="224.2" y1="395.3" x2="140.4" y2="398.0" stroke="#010101" stroke-width="15.8" stroke-linecap="round"/>
  <line x1="270.9" y1="417.4" x2="317.1" y2="479.9" stroke="#010101" stroke-width="15.8" stroke-linecap="round"/>
  <circle cx="478.3" cy="500.4" r="33.7" fill="url(#x0g8)" stroke="#010101" stroke-width="6.3" filter="url(#x0dof1)"/>
  <line x1="448.2" y1="501.2" x2="367.2" y2="503.5" stroke="#000000" stroke-width="15.8" stroke-linecap="round"/>
  <line x1="494.7" y1="525.0" x2="540.7" y2="594.1" stroke="#000000" stroke-width="15.8" stroke-linecap="round"/>
  <circle cx="108.9" cy="399.1" r="35.8" fill="url(#x0g7)" stroke="#010101" stroke-width="6.3" filter="url(#x0dof1)"/>
  <circle cx="335.2" cy="504.5" r="35.8" fill="url(#x0g5)" stroke="#000000" stroke-width="6.3" filter="url(#x0dof1)"/>
  <line x1="330.0" y1="533.5" x2="304.4" y2="580.0" stroke="#000000" stroke-width="11.0" stroke-linecap="round"/>
  <line x1="313.5" y1="524.4" x2="287.8" y2="570.9" stroke="#000000" stroke-width="11.0" stroke-linecap="round"/>
  <circle cx="558.2" cy="620.2" r="35.8" fill="url(#x0g3)" stroke="#000000" stroke-width="6.3" filter="url(#x0dof0)"/>
  <circle cx="284.0" cy="597.4" r="32.1" fill="url(#x0g12)" stroke="#000000" stroke-width="6.3" filter="url(#x0dof0)"/>
</svg>