<svg xmlns="http://www.w3.org/2000/svg" xmlns:xlink="http://www.w3.org/1999/xlink" viewBox="0 0 800 710" width="800" height="710">
  <rect width="100%" height="100%" fill="#ffffff"/>
  <defs>
    <g id="x0a0"><radialGradient id="x0g0" cx=".5" cy=".5" fx=".33" fy=".33" r=".66"><stop offset="0%" stop-color="#c3c3c3"/><stop offset="100%" stop-color="#888888"/></radialGradient><circle cx="0" cy="0" r="47.8" fill="url(#x0g0)" stroke="#000000" stroke-width="8.4"/></g>
    <g id="x0a1"><radialGradient id="x0g1" cx=".5" cy=".5" fx=".33" fy=".33" r=".66"><stop offset="0%" stop-color="#c3c3c3"/><stop offset="100%" stop-color="#888888"/></radialGradient><circle cx="0" cy="0" r="47.8" fill="url(#x0g1)" stroke="#000000" stroke-width="8.4"/></g>
    <g id="x0a2"><radialGradient id="x0g2" cx=".5" cy=".5" fx=".33" fy=".33" r=".66"><stop offset="0%" stop-color="#c3c3c3"/><stop offset="100%" stop-color="#888888"/></radialGradient><circle cx="0" cy="0" r="47.8" fill="url(#x0g2)" stroke="#000000" stroke-width="8.4"/></g>
    <g id="x0a3"><radialGradient id="x0g3" cx=".5" cy=".5" fx=".33" fy=".33" r=".66"><stop offset="0%" stop-color="#c3c3c3"/><stop offset="100%" stop-color="#888888"/></radialGradient><circle cx="0" cy="0" r="47.8" fill="url(#x0g3)" stroke="#000000" stroke-width="8.4"/></g>
    <g id="x0a4"><radialGradient id="x0g4" cx=".5" cy=".5" fx=".33" fy=".33" r=".66"><stop offset="0%" stop-color="#c3c3c3"/><stop offset="100%" stop-color="#888888"/></radialGradient><circle cx="0" cy="0" r="47.8" fill="url(#x0g4)" stroke="#000000" stroke-width="8.4"/></g>
    <g id="x0a5"><radialGradient id="x0g5" cx=".5" cy=".5" fx=".33" fy=".33" r=".66"><stop offset="0%" stop-color="#c3c3c3"/><stop offset="100%" stop-color="#888888"/></radialGradient><circle cx="0" cy="0" r="47.8" fill="url(#x0g5)" stroke="#000000" stroke-width="8.4"/></g>
  </defs>
  <polygon points="493.4,193.2 306.6,516.8 586.8,355.0" fill="#4682b4" fill-opacity="0.35" stroke="none"/>
  <polygon points="493.4,516.8 586.8,355.0 213.2,355.0" fill="#4682b4" fill-opacity="0.35" stroke="none"/>
  <polygon points="493.4,516.8 306.6,516.8 213.2,355.0" fill="#4682b4" fill-opacity="0.35" stroke="none"/>
  <polygon points="493.4,516.8 306.6,516.8 586.8,355.0" fill="#4682b4" fill-opacity="0.35" stroke="none"/>
  <polygon points="306.6,193.2 586.8,355.0 213.2,355.0" fill="#4682b4" fill-opacity="0.35" stroke="none"/>
  <polygon points="306.6,193.2 493.4,193.2 586.8,355.0" fill="#4682b4" fill-opacity="0.35" stroke="none"/>
  <polygon points="306.6,193.2 306.6,516.8 213.2,355.0" fill="#4682b4" fill-opacity="0.35" stroke="none"/>
  <polygon points="306.6,193.2 493.4,193.2 306.6,516.8" fill="#4682b4" fill-opacity="0.35" stroke="none"/>
  <use x="493.4" y="516.8" xlink:href="#x0a0"/>
  <line x1="450.4" y1="529.4" x2="349.6" y2="529.4" stroke="#000000" stroke-width="14.7" stroke-linecap="round"/>
  <line x1="450.4" y1="504.1" x2="349.6" y2="504.1" stroke="#000000" stroke-width="14.7" stroke-linecap="round" stroke-dasharray="14.7,29.5"/>
  <line x1="504.0" y1="473.2" x2="554.3" y2="385.9" stroke="#000000" stroke-width="14.7" stroke-linecap="round" stroke-dasharray="14.7,29.5"/>
  <line x1="525.8" y1="485.8" x2="576.2" y2="398.6" stroke="#000000" stroke-width="14.7" stroke-linecap="round"/>
  <use x="306.6" y="516.8" xlink:href="#x0a1"/>
  <line x1="274.2" y1="485.8" x2="223.8" y2="398.6" stroke="#000000" stroke-width="14.7" stroke-linecap="round"/>
  <line x1="296.0" y1="473.2" x2="245.7" y2="385.9" stroke="#000000" stroke-width="14.7" stroke-linecap="round" stroke-dasharray="14.7,29.5"/>
  <use x="213.2" y="355.0" xlink:href="#x0a2"/>
  <line x1="223.8" y1="311.4" x2="274.2" y2="224.2" stroke="#000000" stroke-width="14.7" stroke-linecap="round"/>
  <line x1="245.7" y1="324.1" x2="296.0" y2="236.8" stroke="#000000" stroke-width="14.7" stroke-linecap="round" stroke-dasharray="14.7,29.5"/>
  <use x="306.6" y="193.2" xlink:href="#x0a3"/>
  <line x1="349.6" y1="180.6" x2="450.4" y2="180.6" stroke="#000000" stroke-width="14.7" stroke-linecap="round"/>
  <line x1="349.6" y1="205.9" x2="450.4" y2="205.9" stroke="#000000" stroke-width="14.7" stroke-linecap="round" stroke-dasharray="14.7,29.5"/>
  <use x="493.4" y="193.2" xlink:href="#x0a4"/>
  <line x1="525.8" y1="224.2" x2="576.2" y2="311.4" stroke="#000000" stroke-width="14.7" stroke-linecap="round"/>
  <line x1="504.0" y1="236.8" x2="554.3" y2="324.1" stroke="#000000" stroke-width="14.7" stroke-linecap="round" stroke-dasharray="14.7,29.5"/>
  <use x="586.8" y="355.0" xlink:href="#x0a5"/>
</svg>