<svg xmlns="http://www.w3.org/2000/svg" xmlns:xlink="http://www.w3.org/1999/xlink" viewBox="0 0 800 800" width="800" height="800">
  <rect width="100%" height="100%" fill="#ffffff"/>
  <defs>
    <g id="x2a0"><radialGradient id="x2g0" cx=".5" cy=".5" fx=".33" fy=".33" r=".66"><stop offset="0%" stop-color="#f4b7c1"/><stop offset="100%" stop-color="#c57f8a"/></radialGradient><circle cx="0" cy="0" r="59.9" fill="url(#x2g0)" stroke="#1f1f1f" stroke-width="8.4"/></g>
    <g id="x2a1"><radialGradient id="x2g1" cx=".5" cy=".5" fx=".33" fy=".33" r=".66"><stop offset="0%" stop-color="#6ff46f"/><stop offset="100%" stop-color="#2bc52b"/></radialGradient><circle cx="0" cy="0" r="49.6" fill="url(#x2g1)" stroke="#1f1f1f" stroke-width="8.4"/></g>
    <g id="x2a2"><radialGradient id="x2g2" cx=".5" cy=".5" fx=".33" fy=".33" r=".66"><stop offset="0%" stop-color="#6ff46f"/><stop offset="100%" stop-color="#2bc52b"/></radialGradient><circle cx="0" cy="0" r="49.6" fill="url(#x2g2)" stroke="#1f1f1f" stroke-width="8.4"/></g>
    <g id="x2a3"><radialGradient id="x2g3" cx=".5" cy=".5" fx=".33" fy=".33" r=".66"><stop offset="0%" stop-color="#6ff46f"/><stop offset="100%" stop-color="#2bc52b"/></radialGradient><circle cx="0" cy="0" r="49.6" fill="url(#x2g3)" stroke="#1f1f1f" stroke-width="8.4"/></g>
    <g id="x2a4"><radialGradient id="x2g4" cx=".5" cy=".5" fx=".33" fy=".33" r=".66"><stop offset="0%" stop-color="#6ff46f"/><stop offset="100%" stop-color="#2bc52b"/></radialGradient><circle cx="0" cy="0" r="49.6" fill="url(#x2g4)" stroke="#1f1f1f" stroke-width="8.4"/></g>
    <g id="x2a5"><radialGradient id="x2g5" cx=".5" cy=".5" fx=".33" fy=".33" r=".66"><stop offset="0%" stop-color="#62f462"/><stop offset="100%" stop-color="#18c018"/></radialGradient><circle cx="0" cy="0" r="49.6" fill="url(#x2g5)" stroke="#000000" stroke-width="8.4"/></g>
    <g id="x2a6"><radialGradient id="x2g6" cx=".5" cy=".5" fx=".33" fy=".33" r=".66"><stop offset="0%" stop-color="#c5fac5"/><stop offset="100%" stop-color="#a9e7a9"/></radialGradient><circle cx="0" cy="0" r="49.6" fill="url(#x2g6)" stroke="#b2b2b2" stroke-width="8.4"/></g>
  </defs>
  <polygon points="400.0,400.0 400.0,720.1 79.9,400.0" fill="#4682b4" fill-opacity="0.35" stroke="none"/>
  <polygon points="400.0,400.0 400.0,720.1 720.1,400.0" fill="#4682b4" fill-opacity="0.35" stroke="none"/>
  <polygon points="400.0,79.9 400.0,400.0 720.1,400.0" fill="#4682b4" fill-opacity="0.35" stroke="none"/>
  <polygon points="400.0,79.9 400.0,400.0 79.9,400.0" fill="#4682b4" fill-opacity="0.35" stroke="none"/>
  <polygon points="400.0,400.0 400.0,720.1 79.9,400.0" fill="#4682b4" fill-opacity="0.35" stroke="none"/>
  <polygon points="400.0,400.0 400.0,720.1 720.1,400.0" fill="#4682b4" fill-opacity="0.35" stroke="none"/>
  <polygon points="400.0,79.9 400.0,400.0 720.1,400.0" fill="#4682b4" fill-opacity="0.35" stroke="none"/>
  <polygon points="400.0,79.9 400.0,400.0 79.9,400.0" fill="#4682b4" fill-opacity="0.35" stroke="none"/>
  <line x1="79.9" y1="400.0" x2="400.0" y2="720.1" stroke="#808080" stroke-width="8.4" stroke-linecap="round"/>
  <line x1="720.1" y1="400.0" x2="400.0" y2="720.1" stroke="#808080" stroke-width="8.4" stroke-linecap="round"/>
  <line x1="720.1" y1="400.0" x2="400.0" y2="79.9" stroke="#808080" stroke-width="8.4" stroke-linecap="round"/>
  <line x1="79.9" y1="400.0" x2="400.0" y2="79.9" stroke="#808080" stroke-width="8.4" stroke-linecap="round"/>
  <use x="400.0" y="400.0" xlink:href="#x2a6"/>
  <use x="400.0" y="400.0" xlink:href="#x2a0"/>
  <line x1="346.1" y1="400.0" x2="124.5" y2="400.0" stroke="#111111" stroke-width="21.1" stroke-linecap="round"/>
  <line x1="453.9" y1="400.0" x2="675.5" y2="400.0" stroke="#111111" stroke-width="21.1" stroke-linecap="round"/>
  <line x1="400.0" y1="453.9" x2="400.0" y2="675.5" stroke="#111111" stroke-width="21.1" stroke-linecap="round"/>
  <line x1="400.0" y1="346.1" x2="400.0" y2="124.5" stroke="#111111" stroke-width="21.1" stroke-linecap="round"/>
  <use x="79.9" y="400.0" xlink:href="#x2a2"/>
  <use x="720.1" y="400.0" xlink:href="#x2a1"/>
  <use x="400.0" y="720.1" xlink:href="#x2a3"/>
  <use x="400.0" y="79.9" xlink:href="#x2a4"/>
  <use x="400.0" y="400.0" xlink:href="#x2a5"/>
</svg>