<svg xmlns="http://www.w3.org/2000/svg" xmlns:xlink="http://www.w3.org/1999/xlink" viewBox="0 0 800 631" width="800" height="631">
  <rect width="100%" height="100%" fill="#ffffff"/>
  <defs>
    <radialGradient id="x0g0" cx=".5" cy=".5" fx=".33" fy=".33" r=".66"><stop offset="0%" stop-color="#d98a5d"/><stop offset="40%" stop-color="#e06734"/><stop offset="100%" stop-color="#861911"/></radialGradient>
    <radialGradient id="x0g1" cx=".5" cy=".5" fx=".33" fy=".33" r=".66"><stop offset="0%" stop-color="#b6b6b6"/><stop offset="40%" stop-color="#aaaaaa"/><stop offset="100%" stop-color="#6b4f55"/></radialGradient>
    <radialGradient id="x0g2" cx=".5" cy=".5" fx=".33" fy=".33" r=".66"><stop offset="0%" stop-color="#bebebe"/><stop offset="40%" stop-color="#b3b3b3"/><stop offset="100%" stop-color="#7c6368"/></radialGradient>
    <radialGradient id="x0g3" cx=".5" cy=".5" fx=".33" fy=".33" r=".66"><stop offset="0%" stop-color="#c0c0c0"/><stop offset="40%" stop-color="#b5b5b5"/><stop offset="100%" stop-color="#7f676c"/></radialGradient>
    <radialGradient id="x0g4" cx=".5" cy=".5" fx=".33" fy=".33" r=".66"><stop offset="0%" stop-color="#b6b6b6"/><stop offset="40%" stop-color="#aaaaaa"/><stop offset="100%" stop-color="#6b4f55"/></radialGradient>
    <radialGradient id="x0g5" cx=".5" cy=".5" fx=".33" fy=".33" r=".66"><stop offset="0%" stop-color="#b6b6b6"/><stop offset="40%" stop-color="#aaaaaa"/><stop offset="100%" stop-color="#6b4f55"/></radialGradient>
    <radialGradient id="x0g6" cx=".5" cy=".5" fx=".33" fy=".33" r=".66"><stop offset="0%" stop-color="#b6b6b6"/><stop offset="40%" stop-color="#aaaaaa"/><stop offset="100%" stop-color="#6b4f55"/></radialGradient>
    <radialGradient id="x0g7" cx=".5" cy=".5" fx=".33" fy=".33" r=".66"><stop offset="0%" stop-color="#b9b9b9"/><stop offset="40%" stop-color="#adadad"/><stop offset="100%" stop-color="#71565c"/></radialGradient>
    <radialGradient id="x0g8" cx=".5" cy=".5" fx=".33" fy=".33" r=".66"><stop offset="0%" stop-color="#c7c7c7"/><stop offset="40%" stop-color="#bdbdbd"/><stop offset="100%" stop-color="#8d787c"/></radialGradient>
    <radialGradient id="x0g9" cx=".5" cy=".5" fx=".33" fy=".33" r=".66"><stop offset="0%" stop-color="#bababa"/><stop offset="40%" stop-color="#afafaf"/><stop offset="100%" stop-color="#745a5f"/></radialGradient>
    <radialGradient id="x0g10" cx=".5" cy=".5" fx=".33" fy=".33" r=".66"><stop offset="0%" stop-color="#b6b6b6"/><stop offset="40%" stop-color="#aaaaaa"/><stop offset="100%" stop-color="#6b4f55"/></radialGradient>
    <radialGradient id="x0g11" cx=".5" cy=".5" fx=".33" fy=".33" r=".66"><stop offset="0%" stop-color="#5de44d"/><stop offset="40%" stop-color="#1ff01f"/><stop offset="100%" stop-color="#078d22"/></radialGradient>
    <radialGradient id="x0g12" cx=".5" cy=".5" fx=".33" fy=".33" r=".66"><stop offset="0%" stop-color="#d9d9d9"/><stop offset="40%" stop-color="#d3d3d3"/><stop offset="100%" stop-color="#b2a4a7"/></radialGradient>
  </defs>
  <circle cx="716.4" cy="433.5" r="44.9" fill="url(#x0g12)" stroke="#b0b0b0" stroke-width="7.9"/>
  <line x1="710.6" y1="408.1" x2="695.2" y2="340.7" stroke="#373737" stroke-width="19.8" stroke-linecap="round"/>
  <circle cx="107.7" cy="333.1" r="44.9" fill="url(#x0g8)" stroke="#555555" stroke-width="7.9"/>
  <line x1="85.8" y1="302.5" x2="69.3" y2="222.6" stroke="#1b1b1b" stroke-width="13.9" stroke-linecap="round"/>
  <line x1="115.7" y1="296.4" x2="99.2" y2="216.5" stroke="#1b1b1b" stroke-width="13.9" stroke-linecap="round"/>
  <line x1="127.3" y1="361.5" x2="138.1" y2="434.3" stroke="#181818" stroke-width="13.9" stroke-linecap="round"/>
  <line x1="97.1" y1="366.0" x2="107.9" y2="438.8" stroke="#181818" stroke-width="13.9" stroke-linecap="round"/>
  <line x1="142.0" y1="325.5" x2="340.1" y2="281.9" stroke="#101010" stroke-width="19.8" stroke-linecap="round"/>
  <circle cx="658.3" cy="141.5" r="44.9" fill="url(#x0g3)" stroke="#323232" stroke-width="7.9"/>
  <line x1="680.4" y1="178.5" x2="697.3" y2="272.9" stroke="#1a1a1a" stroke-width="13.9" stroke-linecap="round"/>
  <line x1="650.4" y1="183.9" x2="667.2" y2="278.3" stroke="#1a1a1a" stroke-width="13.9" stroke-linecap="round"/>
  <line x1="624.2" y1="157.7" x2="427.4" y2="251.5" stroke="#0a0a0a" stroke-width="19.8" stroke-linecap="round"/>
  <line x1="639.5" y1="130.9" x2="629.7" y2="96.1" stroke="#070707" stroke-width="13.9" stroke-linecap="round"/>
  <line x1="668.9" y1="122.7" x2="659.1" y2="87.8" stroke="#070707" stroke-width="13.9" stroke-linecap="round"/>
  <circle cx="689.4" cy="315.3" r="44.9" fill="url(#x0g2)" stroke="#2a2a2a" stroke-width="7.9"/>
  <line x1="651.4" y1="310.0" x2="432.3" y2="279.1" stroke="#090909" stroke-width="19.8" stroke-linecap="round"/>
  <line x1="689.6" y1="325.2" x2="690.2" y2="348.7" stroke="#060606" stroke-width="19.8" stroke-linecap="round"/>
  <circle cx="77.3" cy="185.9" r="44.9" fill="url(#x0g9)" stroke="#171717" stroke-width="7.9"/>
  <line x1="115.4" y1="196.7" x2="335.3" y2="258.6" stroke="#050505" stroke-width="19.8" stroke-linecap="round"/>
  <line x1="92.8" y1="195.4" x2="93.4" y2="218.9" stroke="#030303" stroke-width="13.9" stroke-linecap="round"/>
  <line x1="62.3" y1="196.2" x2="62.9" y2="219.7" stroke="#030303" stroke-width="13.9" stroke-linecap="round"/>
  <circle cx="127.5" cy="467.2" r="44.9" fill="url(#x0g7)" stroke="#0f0f0f" stroke-width="7.9"/>
  <line x1="159.4" y1="443.0" x2="343.3" y2="303.1" stroke="#040404" stroke-width="19.8" stroke-linecap="round"/>
  <line x1="108.7" y1="456.7" x2="98.9" y2="421.8" stroke="#020202" stroke-width="13.9" stroke-linecap="round"/>
  <line x1="138.1" y1="448.4" x2="128.3" y2="413.6" stroke="#020202" stroke-width="13.9" stroke-linecap="round"/>
  <circle cx="383.9" cy="272.3" r="57.3" fill="url(#x0g0)" stroke="#020202" stroke-width="7.9"/>
  <line x1="424.5" y1="241.4" x2="608.4" y2="101.5" stroke="#000000" stroke-width="19.8" stroke-linecap="round"/>
  <line x1="432.5" y1="285.9" x2="652.4" y2="347.9" stroke="#000000" stroke-width="19.8" stroke-linecap="round"/>
  <line x1="335.5" y1="265.4" x2="116.4" y2="234.5" stroke="#000000" stroke-width="19.8" stroke-linecap="round"/>
  <line x1="340.4" y1="293.0" x2="143.5" y2="386.8" stroke="#000000" stroke-width="19.8" stroke-linecap="round"/>
  <line x1="427.7" y1="262.6" x2="625.8" y2="219.0" stroke="#000000" stroke-width="19.8" stroke-linecap="round"/>
  <circle cx="640.3" cy="77.3" r="44.9" fill="url(#x0g4)" stroke="#000000" stroke-width="7.9"/>
  <line x1="659.9" y1="105.7" x2="670.7" y2="178.6" stroke="#000000" stroke-width="13.9" stroke-linecap="round"/>
  <line x1="629.7" y1="110.2" x2="640.5" y2="183.0" stroke="#000000" stroke-width="13.9" stroke-linecap="round"/>
  <circle cx="690.5" cy="358.6" r="44.9" fill="url(#x0g1)" stroke="#000000" stroke-width="7.9"/>
  <line x1="696.6" y1="395.6" x2="716.3" y2="515.4" stroke="#000000" stroke-width="19.8" stroke-linecap="round"/>
  <line x1="668.6" y1="328.0" x2="652.1" y2="248.1" stroke="#000000" stroke-width="13.9" stroke-linecap="round"/>
  <line x1="698.5" y1="321.9" x2="682.0" y2="242.0" stroke="#000000" stroke-width="13.9" stroke-linecap="round"/>
  <circle cx="78.4" cy="229.2" r="44.9" fill="url(#x0g10)" stroke="#000000" stroke-width="7.9"/>
  <line x1="100.5" y1="266.2" x2="117.4" y2="360.6" stroke="#000000" stroke-width="13.9" stroke-linecap="round"/>
  <line x1="70.5" y1="271.6" x2="87.3" y2="366.0" stroke="#000000" stroke-width="13.9" stroke-linecap="round"/>
  <circle cx="109.4" cy="403.0" r="44.9" fill="url(#x0g6)" stroke="#000000" stroke-width="7.9"/>
  <circle cx="722.7" cy="553.7" r="46.6" fill="url(#x0g11)" stroke="#000000" stroke-width="7.9"/>
  <circle cx="660.1" cy="211.4" r="44.9" fill="url(#x0g5)" stroke="#000000" stroke-width="7.9"/>
  <text x="553.3" y="258.2" font-family="monospace" font-size="39.6px" font-weight="bold" text-anchor="middle" dominant-baseline="central" fill="#ffffff" stroke="#ffffff" stroke-width="13.9" stroke-linejoin="round">Sₚ</text>
  <text x="553.3" y="258.2" font-family="monospace" font-size="39.6px" font-weight="bold" text-anchor="middle" dominant-baseline="central" fill="#222222">Sₚ</text>
</svg>