<svg xmlns="http://www.w3.org/2000/svg" xmlns:xlink="http://www.w3.org/1999/xlink" viewBox="0 0 800 602" width="800" height="602">
  <rect width="100%" height="100%" fill="#ffffff"/>
  <defs>
    <g id="x0a0"><radialGradient id="x0g0" cx=".5" cy=".5" fx=".33" fy=".33" r=".66"><stop offset="0%" stop-color="#c6c6c6"/><stop offset="100%" stop-color="#8e8e8e"/></radialGradient><circle cx="0" cy="0" r="16.9" fill="url(#x0g0)" stroke="#131313" stroke-width="3.7"/></g>
    <g id="x0a1"><radialGradient id="x0g1" cx=".5" cy=".5" fx=".33" fy=".33" r=".66"><stop offset="0%" stop-color="#c4c4c4"/><stop offset="100%" stop-color="#8b8b8b"/></radialGradient><circle cx="0" cy="0" r="16.9" fill="url(#x0g1)" stroke="#0a0a0a" stroke-width="3.7"/></g>
    <g id="x0a2"><radialGradient id="x0g2" cx=".5" cy=".5" fx=".33" fy=".33" r=".66"><stop offset="0%" stop-color="#c4c4c4"/><stop offset="100%" stop-color="#8b8b8b"/></radialGradient><circle cx="0" cy="0" r="16.9" fill="url(#x0g2)" stroke="#090909" stroke-width="3.7"/></g>
    <g id="x0a3"><radialGradient id="x0g3" cx=".5" cy=".5" fx=".33" fy=".33" r=".66"><stop offset="0%" stop-color="#c6c6c6"/><stop offset="100%" stop-color="#8e8e8e"/></radialGradient><circle cx="0" cy="0" r="16.9" fill="url(#x0g3)" stroke="#121212" stroke-width="3.7"/></g>
    <g id="x0a4"><radialGradient id="x0g4" cx=".5" cy=".5" fx=".33" fy=".33" r=".66"><stop offset="0%" stop-color="#c8c8c8"/><stop offset="100%" stop-color="#919191"/></radialGradient><circle cx="0" cy="0" r="16.9" fill="url(#x0g4)" stroke="#1e1e1e" stroke-width="3.7"/></g>
    <g id="x0a5"><radialGradient id="x0g5" cx=".5" cy=".5" fx=".33" fy=".33" r=".66"><stop offset="0%" stop-color="#c8c8c8"/><stop offset="100%" stop-color="#929292"/></radialGradient><circle cx="0" cy="0" r="16.9" fill="url(#x0g5)" stroke="#1e1e1e" stroke-width="3.7"/></g>
    <g id="x0a6"><radialGradient id="x0g6" cx=".5" cy=".5" fx=".33" fy=".33" r=".66"><stop offset="0%" stop-color="#7f92fa"/><stop offset="100%" stop-color="#4057cc"/></radialGradient><circle cx="0" cy="0" r="15.9" fill="url(#x0g6)" stroke="#2c2c2c" stroke-width="3.7"/></g>
    <g id="x0a7"><radialGradient id="x0g7" cx=".5" cy=".5" fx=".33" fy=".33" r=".66"><stop offset="0%" stop-color="#c9c9c9"/><stop offset="100%" stop-color="#949494"/></radialGradient><circle cx="0" cy="0" r="16.9" fill="url(#x0g7)" stroke="#272727" stroke-width="3.7"/></g>
    <g id="x0a8"><radialGradient id="x0g8" cx=".5" cy=".5" fx=".33" fy=".33" r=".66"><stop offset="0%" stop-color="#8194fa"/><stop offset="100%" stop-color="#435acd"/></radialGradient><circle cx="0" cy="0" r="15.9" fill="url(#x0g8)" stroke="#323232" stroke-width="3.7"/></g>
    <g id="x0a9"><radialGradient id="x0g9" cx=".5" cy=".5" fx=".33" fy=".33" r=".66"><stop offset="0%" stop-color="#cecece"/><stop offset="100%" stop-color="#9f9f9f"/></radialGradient><circle cx="0" cy="0" r="16.9" fill="url(#x0g9)" stroke="#474747" stroke-width="3.7"/></g>
    <g id="x0a10"><radialGradient id="x0g10" cx=".5" cy=".5" fx=".33" fy=".33" r=".66"><stop offset="0%" stop-color="#d5d5d5"/><stop offset="100%" stop-color="#ababab"/></radialGradient><circle cx="0" cy="0" r="16.9" fill="url(#x0g10)" stroke="#6d6d6d" stroke-width="3.7"/></g>
    <g id="x0a11"><radialGradient id="x0g11" cx=".5" cy=".5" fx=".33" fy=".33" r=".66"><stop offset="0%" stop-color="#cdcdcd"/><stop offset="100%" stop-color="#9d9d9d"/></radialGradient><circle cx="0" cy="0" r="16.9" fill="url(#x0g11)" stroke="#424242" stroke-width="3.7"/></g>
    <g id="x0a12"><radialGradient id="x0g12" cx=".5" cy=".5" fx=".33" fy=".33" r=".66"><stop offset="0%" stop-color="#dcdcdc"/><stop offset="100%" stop-color="#bababa"/></radialGradient><circle cx="0" cy="0" r="16.9" fill="url(#x0g12)" stroke="#9b9b9b" stroke-width="3.7"/></g>
    <g id="x0a13"><radialGradient id="x0g13" cx=".5" cy=".5" fx=".33" fy=".33" r=".66"><stop offset="0%" stop-color="#e7e7e7"/><stop offset="100%" stop-color="#cfcfcf"/></radialGradient><circle cx="0" cy="0" r="16.9" fill="url(#x0g13)" stroke="#b2b2b2" stroke-width="3.7"/></g>
    <g id="x0a14"><radialGradient id="x0g14" cx=".5" cy=".5" fx=".33" fy=".33" r=".66"><stop offset="0%" stop-color="#d4d4d4"/><stop offset="100%" stop-color="#aaaaaa"/></radialGradient><circle cx="0" cy="0" r="16.9" fill="url(#x0g14)" stroke="#6a6a6a" stroke-width="3.7"/></g>
    <g id="x0a15"><radialGradient id="x0g15" cx=".5" cy=".5" fx=".33" fy=".33" r=".66"><stop offset="0%" stop-color="#c8c8c8"/><stop offset="100%" stop-color="#929292"/></radialGradient><circle cx="0" cy="0" r="16.9" fill="url(#x0g15)" stroke="#1f1f1f" stroke-width="3.7"/></g>
    <g id="x0a16"><radialGradient id="x0g16" cx=".5" cy=".5" fx=".33" fy=".33" r=".66"><stop offset="0%" stop-color="#c9c9c9"/><stop offset="100%" stop-color="#949494"/></radialGradient><circle cx="0" cy="0" r="16.9" fill="url(#x0g16)" stroke="#242424" stroke-width="3.7"/></g>
    <g id="x0a17"><radialGradient id="x0g17" cx=".5" cy=".5" fx=".33" fy=".33" r=".66"><stop offset="0%" stop-color="#c5c5c5"/><stop offset="100%" stop-color="#8c8c8c"/></radialGradient><circle cx="0" cy="0" r="16.9" fill="url(#x0g17)" stroke="#0c0c0c" stroke-width="3.7"/></g>
    <g id="x0a18"><radialGradient id="x0g18" cx=".5" cy=".5" fx=".33" fy=".33" r=".66"><stop offset="0%" stop-color="#c3c3c3"/><stop offset="100%" stop-color="#888888"/></radialGradient><circle cx="0" cy="0" r="16.9" fill="url(#x0g18)" stroke="#000000" stroke-width="3.7"/></g>
    <g id="x0a19"><radialGradient id="x0g19" cx=".5" cy=".5" fx=".33" fy=".33" r=".66"><stop offset="0%" stop-color="#c3c3c3"/><stop offset="100%" stop-color="#888888"/></radialGradient><circle cx="0" cy="0" r="16.9" fill="url(#x0g19)" stroke="#000000" stroke-width="3.7"/></g>
    <g id="x0a20"><radialGradient id="x0g20" cx=".5" cy=".5" fx=".33" fy=".33" r=".66"><stop offset="0%" stop-color="#c4c4c4"/><stop offset="100%" stop-color="#8a8a8a"/></radialGradient><circle cx="0" cy="0" r="16.9" fill="url(#x0g20)" stroke="#060606" stroke-width="3.7"/></g>
    <g id="x0a21"><radialGradient id="x0g21" cx=".5" cy=".5" fx=".33" fy=".33" r=".66"><stop offset="0%" stop-color="#c9c9c9"/><stop offset="100%" stop-color="#959595"/></radialGradient><circle cx="0" cy="0" r="16.9" fill="url(#x0g21)" stroke="#282828" stroke-width="3.7"/></g>
    <g id="x0a22"><radialGradient id="x0g22" cx=".5" cy=".5" fx=".33" fy=".33" r=".66"><stop offset="0%" stop-color="#ff6262"/><stop offset="100%" stop-color="#d01d1d"/></radialGradient><circle cx="0" cy="0" r="15.1" fill="url(#x0g22)" stroke="#1c1c1c" stroke-width="3.7"/></g>
    <g id="x0a23"><radialGradient id="x0g23" cx=".5" cy=".5" fx=".33" fy=".33" r=".66"><stop offset="0%" stop-color="#cacaca"/><stop offset="100%" stop-color="#969696"/></radialGradient><circle cx="0" cy="0" r="16.9" fill="url(#x0g23)" stroke="#2d2d2d" stroke-width="3.7"/></g>
    <g id="x0a24"><radialGradient id="x0g24" cx=".5" cy=".5" fx=".33" fy=".33" r=".66"><stop offset="0%" stop-color="#c9c9c9"/><stop offset="100%" stop-color="#959595"/></radialGradient><circle cx="0" cy="0" r="16.9" fill="url(#x0g24)" stroke="#282828" stroke-width="3.7"/></g>
    <g id="x0a25"><radialGradient id="x0g25" cx=".5" cy=".5" fx=".33" fy=".33" r=".66"><stop offset="0%" stop-color="#cacaca"/><stop offset="100%" stop-color="#969696"/></radialGradient><circle cx="0" cy="0" r="16.9" fill="url(#x0g25)" stroke="#2b2b2b" stroke-width="3.7"/></g>
    <g id="x0a26"><radialGradient id="x0g26" cx=".5" cy=".5" fx=".33" fy=".33" r=".66"><stop offset="0%" stop-color="#ffff76"/><stop offset="100%" stop-color="#cfcf33"/></radialGradient><circle cx="0" cy="0" r="18.2" fill="url(#x0g26)" stroke="#151515" stroke-width="3.7"/></g>
    <g id="x0a52"><radialGradient id="x0g52" cx=".5" cy=".5" fx=".33" fy=".33" r=".66"><stop offset="0%" stop-color="#55aa55"/><stop offset="100%" stop-color="#0d6d0d"/></radialGradient><circle cx="0" cy="0" r="16.9" fill="url(#x0g52)" stroke="#121212" stroke-width="3.7"/></g>
    <g id="x0a53"><radialGradient id="x0g53" cx=".5" cy=".5" fx=".33" fy=".33" r=".66"><stop offset="0%" stop-color="#50a850"/><stop offset="100%" stop-color="#066a06"/></radialGradient><circle cx="0" cy="0" r="16.9" fill="url(#x0g53)" stroke="#090909" stroke-width="3.7"/></g>
    <g id="x0a54"><radialGradient id="x0g54" cx=".5" cy=".5" fx=".33" fy=".33" r=".66"><stop offset="0%" stop-color="#50a850"/><stop offset="100%" stop-color="#076a07"/></radialGradient><circle cx="0" cy="0" r="16.9" fill="url(#x0g54)" stroke="#0a0a0a" stroke-width="3.7"/></g>
    <g id="x0a55"><radialGradient id="x0g55" cx=".5" cy=".5" fx=".33" fy=".33" r=".66"><stop offset="0%" stop-color="#55aa55"/><stop offset="100%" stop-color="#0d6d0d"/></radialGradient><circle cx="0" cy="0" r="16.9" fill="url(#x0g55)" stroke="#121212" stroke-width="3.7"/></g>
    <g id="x0a56"><radialGradient id="x0g56" cx=".5" cy=".5" fx=".33" fy=".33" r=".66"><stop offset="0%" stop-color="#5aad5a"/><stop offset="100%" stop-color="#157215"/></radialGradient><circle cx="0" cy="0" r="16.9" fill="url(#x0g56)" stroke="#1e1e1e" stroke-width="3.7"/></g>
    <g id="x0a57"><radialGradient id="x0g57" cx=".5" cy=".5" fx=".33" fy=".33" r=".66"><stop offset="0%" stop-color="#5aad5a"/><stop offset="100%" stop-color="#157215"/></radialGradient><circle cx="0" cy="0" r="16.9" fill="url(#x0g57)" stroke="#1e1e1e" stroke-width="3.7"/></g>
    <g id="x0a58"><radialGradient id="x0g58" cx=".5" cy=".5" fx=".33" fy=".33" r=".66"><stop offset="0%" stop-color="#61b061"/><stop offset="100%" stop-color="#1e781e"/></radialGradient><circle cx="0" cy="0" r="15.9" fill="url(#x0g58)" stroke="#2b2b2b" stroke-width="3.7"/></g>
    <g id="x0a59"><radialGradient id="x0g59" cx=".5" cy=".5" fx=".33" fy=".33" r=".66"><stop offset="0%" stop-color="#5faf5f"/><stop offset="100%" stop-color="#1b761b"/></radialGradient><circle cx="0" cy="0" r="16.9" fill="url(#x0g59)" stroke="#272727" stroke-width="3.7"/></g>
    <g id="x0a60"><radialGradient id="x0g60" cx=".5" cy=".5" fx=".33" fy=".33" r=".66"><stop offset="0%" stop-color="#64b264"/><stop offset="100%" stop-color="#227a22"/></radialGradient><circle cx="0" cy="0" r="15.9" fill="url(#x0g60)" stroke="#313131" stroke-width="3.7"/></g>
    <g id="x0a61"><radialGradient id="x0g61" cx=".5" cy=".5" fx=".33" fy=".33" r=".66"><stop offset="0%" stop-color="#6eb76e"/><stop offset="100%" stop-color="#308330"/></radialGradient><circle cx="0" cy="0" r="16.9" fill="url(#x0g61)" stroke="#454545" stroke-width="3.7"/></g>
    <g id="x0a62"><radialGradient id="x0g62" cx=".5" cy=".5" fx=".33" fy=".33" r=".66"><stop offset="0%" stop-color="#81c081"/><stop offset="100%" stop-color="#4b934b"/></radialGradient><circle cx="0" cy="0" r="16.9" fill="url(#x0g62)" stroke="#6c6c6c" stroke-width="3.7"/></g>
    <g id="x0a63"><radialGradient id="x0g63" cx=".5" cy=".5" fx=".33" fy=".33" r=".66"><stop offset="0%" stop-color="#6cb66c"/><stop offset="100%" stop-color="#2e822e"/></radialGradient><circle cx="0" cy="0" r="16.9" fill="url(#x0g63)" stroke="#424242" stroke-width="3.7"/></g>
    <g id="x0a64"><radialGradient id="x0g64" cx=".5" cy=".5" fx=".33" fy=".33" r=".66"><stop offset="0%" stop-color="#97cb97"/><stop offset="100%" stop-color="#6ba66b"/></radialGradient><circle cx="0" cy="0" r="16.9" fill="url(#x0g64)" stroke="#999999" stroke-width="3.7"/></g>
    <g id="x0a65"><radialGradient id="x0g65" cx=".5" cy=".5" fx=".33" fy=".33" r=".66"><stop offset="0%" stop-color="#b6dab6"/><stop offset="100%" stop-color="#97c097"/></radialGradient><circle cx="0" cy="0" r="16.9" fill="url(#x0g65)" stroke="#b2b2b2" stroke-width="3.7"/></g>
    <g id="x0a66"><radialGradient id="x0g66" cx=".5" cy=".5" fx=".33" fy=".33" r=".66"><stop offset="0%" stop-color="#80bf80"/><stop offset="100%" stop-color="#4a924a"/></radialGradient><circle cx="0" cy="0" r="16.9" fill="url(#x0g66)" stroke="#6a6a6a" stroke-width="3.7"/></g>
    <g id="x0a67"><radialGradient id="x0g67" cx=".5" cy=".5" fx=".33" fy=".33" r=".66"><stop offset="0%" stop-color="#5bad5b"/><stop offset="100%" stop-color="#157215"/></radialGradient><circle cx="0" cy="0" r="16.9" fill="url(#x0g67)" stroke="#1e1e1e" stroke-width="3.7"/></g>
    <g id="x0a68"><radialGradient id="x0g68" cx=".5" cy=".5" fx=".33" fy=".33" r=".66"><stop offset="0%" stop-color="#5dae5d"/><stop offset="100%" stop-color="#197519"/></radialGradient><circle cx="0" cy="0" r="16.9" fill="url(#x0g68)" stroke="#242424" stroke-width="3.7"/></g>
    <g id="x0a69"><radialGradient id="x0g69" cx=".5" cy=".5" fx=".33" fy=".33" r=".66"><stop offset="0%" stop-color="#52a952"/><stop offset="100%" stop-color="#086b08"/></radialGradient><circle cx="0" cy="0" r="16.9" fill="url(#x0g69)" stroke="#0c0c0c" stroke-width="3.7"/></g>
    <g id="x0a70"><radialGradient id="x0g70" cx=".5" cy=".5" fx=".33" fy=".33" r=".66"><stop offset="0%" stop-color="#4ca64c"/><stop offset="100%" stop-color="#006600"/></radialGradient><circle cx="0" cy="0" r="16.9" fill="url(#x0g70)" stroke="#000000" stroke-width="3.7"/></g>
    <g id="x0a71"><radialGradient id="x0g71" cx=".5" cy=".5" fx=".33" fy=".33" r=".66"><stop offset="0%" stop-color="#4ca64c"/><stop offset="100%" stop-color="#006600"/></radialGradient><circle cx="0" cy="0" r="16.9" fill="url(#x0g71)" stroke="#000000" stroke-width="3.7"/></g>
    <g id="x0a72"><radialGradient id="x0g72" cx=".5" cy=".5" fx=".33" fy=".33" r=".66"><stop offset="0%" stop-color="#4ea74e"/><stop offset="100%" stop-color="#046804"/></radialGradient><circle cx="0" cy="0" r="16.9" fill="url(#x0g72)" stroke="#050505" stroke-width="3.7"/></g>
    <g id="x0a73"><radialGradient id="x0g73" cx=".5" cy=".5" fx=".33" fy=".33" r=".66"><stop offset="0%" stop-color="#60b060"/><stop offset="100%" stop-color="#1c771c"/></radialGradient><circle cx="0" cy="0" r="16.9" fill="url(#x0g73)" stroke="#292929" stroke-width="3.7"/></g>
    <g id="x0a74"><radialGradient id="x0g74" cx=".5" cy=".5" fx=".33" fy=".33" r=".66"><stop offset="0%" stop-color="#5bad5b"/><stop offset="100%" stop-color="#157215"/></radialGradient><circle cx="0" cy="0" r="15.1" fill="url(#x0g74)" stroke="#1e1e1e" stroke-width="3.7"/></g>
    <g id="x0a75"><radialGradient id="x0g75" cx=".5" cy=".5" fx=".33" fy=".33" r=".66"><stop offset="0%" stop-color="#62b162"/><stop offset="100%" stop-color="#207920"/></radialGradient><circle cx="0" cy="0" r="16.9" fill="url(#x0g75)" stroke="#2e2e2e" stroke-width="3.7"/></g>
    <g id="x0a76"><radialGradient id="x0g76" cx=".5" cy=".5" fx=".33" fy=".33" r=".66"><stop offset="0%" stop-color="#60b060"/><stop offset="100%" stop-color="#1d771d"/></radialGradient><circle cx="0" cy="0" r="16.9" fill="url(#x0g76)" stroke="#2a2a2a" stroke-width="3.7"/></g>
    <g id="x0a77"><radialGradient id="x0g77" cx=".5" cy=".5" fx=".33" fy=".33" r=".66"><stop offset="0%" stop-color="#62b162"/><stop offset="100%" stop-color="#1f781f"/></radialGradient><circle cx="0" cy="0" r="16.9" fill="url(#x0g77)" stroke="#2d2d2d" stroke-width="3.7"/></g>
    <g id="x0a78"><radialGradient id="x0g78" cx=".5" cy=".5" fx=".33" fy=".33" r=".66"><stop offset="0%" stop-color="#56ab56"/><stop offset="100%" stop-color="#0e6e0e"/></radialGradient><circle cx="0" cy="0" r="18.2" fill="url(#x0g78)" stroke="#151515" stroke-width="3.7"/></g>
  </defs>
  <use x="379.8" y="449.6" xlink:href="#x0a13"/>
  <line x1="391.6" y1="447.4" x2="437.9" y2="438.7" stroke="#686868" stroke-width="9.3" stroke-linecap="round"/>
  <use x="377.6" y="449.5" xlink:href="#x0a65"/>
  <line x1="389.5" y1="447.1" x2="436.2" y2="437.8" stroke="#679c67" stroke-width="9.3" stroke-linecap="round"/>
  <use x="449.7" y="436.5" xlink:href="#x0a12"/>
  <line x1="448.2" y1="423.6" x2="442.3" y2="372.2" stroke="#494949" stroke-width="9.3" stroke-linecap="round"/>
  <line x1="452.2" y1="448.9" x2="462.2" y2="497.3" stroke="#494949" stroke-width="9.3" stroke-linecap="round"/>
  <use x="448.1" y="435.4" xlink:href="#x0a64"/>
  <line x1="446.6" y1="422.5" x2="440.9" y2="371.1" stroke="#498849" stroke-width="9.3" stroke-linecap="round"/>
  <line x1="451.3" y1="447.8" x2="464.2" y2="496.3" stroke="#488848" stroke-width="9.3" stroke-linecap="round"/>
  <use x="440.8" y="359.3" xlink:href="#x0a10"/>
  <line x1="427.9" y1="357.4" x2="376.7" y2="350.0" stroke="#323232" stroke-width="9.3" stroke-linecap="round"/>
  <line x1="452.7" y1="356.9" x2="499.0" y2="347.5" stroke="#303030" stroke-width="9.3" stroke-linecap="round"/>
  <use x="439.4" y="358.1" xlink:href="#x0a62"/>
  <line x1="426.7" y1="356.1" x2="376.2" y2="348.1" stroke="#317931" stroke-width="9.3" stroke-linecap="round"/>
  <line x1="451.5" y1="355.6" x2="498.1" y2="345.8" stroke="#307830" stroke-width="9.3" stroke-linecap="round"/>
  <use x="464.7" y="509.7" xlink:href="#x0a14"/>
  <use x="467.5" y="508.6" xlink:href="#x0a66"/>
  <use x="363.9" y="348.1" xlink:href="#x0a9"/>
  <line x1="364.0" y1="334.0" x2="364.5" y2="280.8" stroke="#212121" stroke-width="9.3" stroke-linecap="round"/>
  <line x1="361.1" y1="357.9" x2="350.6" y2="395.8" stroke="#1b1b1b" stroke-width="9.3" stroke-linecap="round"/>
  <use x="363.5" y="346.1" xlink:href="#x0a61"/>
  <line x1="363.6" y1="331.9" x2="364.3" y2="277.2" stroke="#216e21" stroke-width="9.3" stroke-linecap="round"/>
  <line x1="360.7" y1="355.9" x2="349.8" y2="394.0" stroke="#1b6a1b" stroke-width="9.3" stroke-linecap="round"/>
  <use x="510.2" y="343.3" xlink:href="#x0a63"/>
  <line x1="508.8" y1="329.6" x2="503.6" y2="278.5" stroke="#1e6d1e" stroke-width="9.3" stroke-linecap="round"/>
  <use x="510.9" y="345.1" xlink:href="#x0a11"/>
  <line x1="509.5" y1="331.3" x2="504.5" y2="280.7" stroke="#1e1e1e" stroke-width="9.3" stroke-linecap="round"/>
  <use x="364.7" y="267.5" xlink:href="#x0a8"/>
  <line x1="352.8" y1="260.1" x2="308.8" y2="232.5" stroke="#191919" stroke-width="9.3" stroke-linecap="round"/>
  <line x1="377.0" y1="261.2" x2="420.5" y2="239.2" stroke="#191919" stroke-width="9.3" stroke-linecap="round"/>
  <use x="364.4" y="263.8" xlink:href="#x0a60"/>
  <line x1="352.4" y1="256.6" x2="306.6" y2="229.1" stroke="#196919" stroke-width="9.3" stroke-linecap="round"/>
  <line x1="376.8" y1="257.6" x2="420.4" y2="235.5" stroke="#186918" stroke-width="9.3" stroke-linecap="round"/>
  <use x="218.7" y="262.9" xlink:href="#x0a75"/>
  <line x1="202.9" y1="259.8" x2="162.0" y2="234.8" stroke="#196919" stroke-width="6.5" stroke-linecap="round"/>
  <line x1="208.7" y1="250.3" x2="167.8" y2="225.3" stroke="#196919" stroke-width="6.5" stroke-linecap="round"/>
  <line x1="231.9" y1="255.6" x2="280.6" y2="228.7" stroke="#186918" stroke-width="9.3" stroke-linecap="round"/>
  <use x="71.9" y="256.4" xlink:href="#x0a77"/>
  <line x1="85.8" y1="250.5" x2="138.1" y2="228.1" stroke="#186918" stroke-width="9.3" stroke-linecap="round"/>
  <use x="220.5" y="262.6" xlink:href="#x0a23"/>
  <line x1="204.8" y1="259.2" x2="164.1" y2="233.1" stroke="#181818" stroke-width="6.5" stroke-linecap="round"/>
  <line x1="210.8" y1="249.8" x2="170.1" y2="223.8" stroke="#181818" stroke-width="6.5" stroke-linecap="round"/>
  <line x1="234.0" y1="255.8" x2="282.7" y2="231.4" stroke="#171717" stroke-width="9.3" stroke-linecap="round"/>
  <use x="503.2" y="267.7" xlink:href="#x0a6"/>
  <line x1="488.1" y1="266.2" x2="444.6" y2="244.3" stroke="#171717" stroke-width="6.5" stroke-linecap="round"/>
  <line x1="493.1" y1="256.3" x2="449.6" y2="234.4" stroke="#171717" stroke-width="6.5" stroke-linecap="round" stroke-dasharray="6.5,13.0"/>
  <line x1="511.0" y1="255.2" x2="551.1" y2="226.2" stroke="#141414" stroke-width="6.5" stroke-linecap="round" stroke-dasharray="6.5,13.0"/>
  <line x1="517.5" y1="264.2" x2="557.6" y2="235.3" stroke="#141414" stroke-width="6.5" stroke-linecap="round"/>
  <use x="74.1" y="252.4" xlink:href="#x0a25"/>
  <line x1="88.1" y1="246.7" x2="140.3" y2="225.9" stroke="#171717" stroke-width="9.3" stroke-linecap="round"/>
  <use x="502.3" y="265.6" xlink:href="#x0a58"/>
  <line x1="487.1" y1="263.8" x2="444.2" y2="240.9" stroke="#176817" stroke-width="6.5" stroke-linecap="round"/>
  <line x1="492.4" y1="254.0" x2="449.5" y2="231.0" stroke="#176817" stroke-width="6.5" stroke-linecap="round" stroke-dasharray="6.5,13.0"/>
  <line x1="510.4" y1="253.4" x2="552.0" y2="225.1" stroke="#146614" stroke-width="6.5" stroke-linecap="round" stroke-dasharray="6.5,13.0"/>
  <line x1="516.6" y1="262.6" x2="558.3" y2="234.4" stroke="#146614" stroke-width="6.5" stroke-linecap="round"/>
  <use x="152.1" y="222.1" xlink:href="#x0a76"/>
  <use x="293.8" y="221.4" xlink:href="#x0a73"/>
  <line x1="289.4" y1="206.5" x2="292.9" y2="166.0" stroke="#146614" stroke-width="6.5" stroke-linecap="round"/>
  <line x1="300.6" y1="207.4" x2="304.0" y2="166.9" stroke="#146614" stroke-width="6.5" stroke-linecap="round"/>
  <use x="154.4" y="220.3" xlink:href="#x0a24"/>
  <use x="296.2" y="224.6" xlink:href="#x0a21"/>
  <line x1="292.5" y1="209.6" x2="297.6" y2="169.2" stroke="#131313" stroke-width="6.5" stroke-linecap="round"/>
  <line x1="303.5" y1="211.0" x2="308.7" y2="170.6" stroke="#131313" stroke-width="6.5" stroke-linecap="round"/>
  <use x="433.7" y="232.6" xlink:href="#x0a7"/>
  <line x1="428.8" y1="218.2" x2="432.2" y2="153.8" stroke="#101010" stroke-width="6.5" stroke-linecap="round"/>
  <line x1="440.0" y1="218.8" x2="443.4" y2="154.4" stroke="#101010" stroke-width="6.5" stroke-linecap="round" stroke-dasharray="6.5,13.0"/>
  <use x="433.5" y="228.9" xlink:href="#x0a59"/>
  <line x1="429.4" y1="214.4" x2="435.6" y2="150.1" stroke="#106310" stroke-width="6.5" stroke-linecap="round"/>
  <line x1="440.4" y1="215.4" x2="446.7" y2="151.2" stroke="#106310" stroke-width="6.5" stroke-linecap="round" stroke-dasharray="6.5,13.0"/>
  <use x="292.9" y="465.3" xlink:href="#x0a16"/>
  <line x1="298.9" y1="450.5" x2="333.6" y2="412.9" stroke="#131313" stroke-width="6.5" stroke-linecap="round"/>
  <line x1="307.1" y1="458.0" x2="341.8" y2="420.4" stroke="#131313" stroke-width="6.5" stroke-linecap="round" stroke-dasharray="6.5,13.0"/>
  <line x1="295.2" y1="476.8" x2="285.0" y2="510.0" stroke="#0c0c0c" stroke-width="6.5" stroke-linecap="round" stroke-dasharray="6.5,13.0"/>
  <line x1="284.5" y1="473.5" x2="274.3" y2="506.7" stroke="#0c0c0c" stroke-width="6.5" stroke-linecap="round"/>
  <use x="292.3" y="463.5" xlink:href="#x0a68"/>
  <line x1="298.3" y1="448.7" x2="332.8" y2="411.2" stroke="#126512" stroke-width="6.5" stroke-linecap="round"/>
  <line x1="306.5" y1="456.2" x2="341.0" y2="418.7" stroke="#126512" stroke-width="6.5" stroke-linecap="round" stroke-dasharray="6.5,13.0"/>
  <line x1="294.7" y1="475.2" x2="284.7" y2="509.3" stroke="#0c610c" stroke-width="6.5" stroke-linecap="round" stroke-dasharray="6.5,13.0"/>
  <line x1="284.0" y1="472.1" x2="274.0" y2="506.2" stroke="#0c610c" stroke-width="6.5" stroke-linecap="round"/>
  <use x="347.8" y="405.6" xlink:href="#x0a15"/>
  <line x1="353.5" y1="398.8" x2="376.5" y2="394.4" stroke="#090909" stroke-width="6.5" stroke-linecap="round"/>
  <line x1="355.7" y1="409.7" x2="378.6" y2="405.3" stroke="#090909" stroke-width="6.5" stroke-linecap="round" stroke-dasharray="6.5,13.0"/>
  <use x="566.0" y="222.3" xlink:href="#x0a5"/>
  <line x1="582.1" y1="220.8" x2="631.9" y2="233.7" stroke="#111111" stroke-width="6.5" stroke-linecap="round" stroke-dasharray="6.5,13.0"/>
  <line x1="579.3" y1="231.5" x2="629.0" y2="244.5" stroke="#111111" stroke-width="6.5" stroke-linecap="round"/>
  <line x1="556.2" y1="210.5" x2="540.7" y2="164.1" stroke="#0d0d0d" stroke-width="6.5" stroke-linecap="round"/>
  <line x1="566.8" y1="207.0" x2="551.2" y2="160.6" stroke="#0d0d0d" stroke-width="6.5" stroke-linecap="round" stroke-dasharray="6.5,13.0"/>
  <use x="299.6" y="153.5" xlink:href="#x0a74"/>
  <use x="347.0" y="403.9" xlink:href="#x0a67"/>
  <line x1="353.2" y1="397.3" x2="376.7" y2="393.9" stroke="#085e08" stroke-width="6.5" stroke-linecap="round"/>
  <line x1="354.8" y1="408.4" x2="378.3" y2="404.9" stroke="#085e08" stroke-width="6.5" stroke-linecap="round" stroke-dasharray="6.5,13.0"/>
  <use x="645.4" y="245.0" xlink:href="#x0a56"/>
  <line x1="629.2" y1="246.0" x2="580.0" y2="231.3" stroke="#116411" stroke-width="6.5" stroke-linecap="round"/>
  <line x1="632.4" y1="235.3" x2="583.2" y2="220.7" stroke="#116411" stroke-width="6.5" stroke-linecap="round" stroke-dasharray="6.5,13.0"/>
  <line x1="651.7" y1="231.1" x2="686.2" y2="197.7" stroke="#0d610d" stroke-width="6.5" stroke-linecap="round" stroke-dasharray="6.5,13.0"/>
  <line x1="659.5" y1="239.1" x2="694.0" y2="205.7" stroke="#0d610d" stroke-width="6.5" stroke-linecap="round"/>
  <use x="645.1" y="243.0" xlink:href="#x0a4"/>
  <line x1="651.1" y1="228.9" x2="684.5" y2="194.8" stroke="#0d0d0d" stroke-width="6.5" stroke-linecap="round" stroke-dasharray="6.5,13.0"/>
  <line x1="659.1" y1="236.7" x2="692.4" y2="202.6" stroke="#0d0d0d" stroke-width="6.5" stroke-linecap="round"/>
  <use x="567.1" y="221.7" xlink:href="#x0a57"/>
  <line x1="557.5" y1="209.7" x2="543.3" y2="163.7" stroke="#0d610d" stroke-width="6.5" stroke-linecap="round" stroke-dasharray="6.5,13.0"/>
  <line x1="568.2" y1="206.4" x2="553.9" y2="160.4" stroke="#0d610d" stroke-width="6.5" stroke-linecap="round"/>
  <use x="304.7" y="157.1" xlink:href="#x0a22"/>
  <use x="438.6" y="138.9" xlink:href="#x0a26"/>
  <line x1="455.4" y1="134.9" x2="526.9" y2="141.8" stroke="#0b0b0b" stroke-width="6.5" stroke-linecap="round"/>
  <line x1="454.4" y1="146.0" x2="525.8" y2="152.9" stroke="#0b0b0b" stroke-width="6.5" stroke-linecap="round" stroke-dasharray="6.5,13.0"/>
  <use x="442.6" y="135.6" xlink:href="#x0a78"/>
  <line x1="459.5" y1="132.1" x2="530.0" y2="141.0" stroke="#0b600b" stroke-width="6.5" stroke-linecap="round"/>
  <line x1="458.1" y1="143.2" x2="528.6" y2="152.1" stroke="#0b600b" stroke-width="6.5" stroke-linecap="round" stroke-dasharray="6.5,13.0"/>
  <use x="541.4" y="148.8" xlink:href="#x0a0"/>
  <line x1="547.5" y1="134.8" x2="581.4" y2="100.7" stroke="#080808" stroke-width="6.5" stroke-linecap="round"/>
  <line x1="555.4" y1="142.6" x2="589.3" y2="108.5" stroke="#080808" stroke-width="6.5" stroke-linecap="round" stroke-dasharray="6.5,13.0"/>
  <use x="700.3" y="191.8" xlink:href="#x0a55"/>
  <line x1="690.8" y1="179.7" x2="676.7" y2="132.9" stroke="#075e07" stroke-width="6.5" stroke-linecap="round" stroke-dasharray="6.5,13.0"/>
  <line x1="701.5" y1="176.5" x2="687.4" y2="129.7" stroke="#075e07" stroke-width="6.5" stroke-linecap="round"/>
  <use x="544.4" y="148.4" xlink:href="#x0a52"/>
  <line x1="550.8" y1="134.5" x2="585.6" y2="101.0" stroke="#075e07" stroke-width="6.5" stroke-linecap="round"/>
  <line x1="558.5" y1="142.6" x2="593.4" y2="109.0" stroke="#075e07" stroke-width="6.5" stroke-linecap="round" stroke-dasharray="6.5,13.0"/>
  <use x="698.4" y="188.5" xlink:href="#x0a3"/>
  <line x1="688.6" y1="176.7" x2="673.2" y2="130.4" stroke="#070707" stroke-width="6.5" stroke-linecap="round" stroke-dasharray="6.5,13.0"/>
  <line x1="699.2" y1="173.2" x2="683.8" y2="126.9" stroke="#070707" stroke-width="6.5" stroke-linecap="round"/>
  <use x="276.5" y="517.9" xlink:href="#x0a69"/>
  <line x1="282.8" y1="511.4" x2="306.9" y2="508.1" stroke="#025a02" stroke-width="6.5" stroke-linecap="round" stroke-dasharray="6.5,13.0"/>
  <line x1="284.3" y1="522.4" x2="308.4" y2="519.2" stroke="#025a02" stroke-width="6.5" stroke-linecap="round"/>
  <use x="276.6" y="518.2" xlink:href="#x0a17"/>
  <line x1="282.7" y1="511.5" x2="306.6" y2="507.4" stroke="#020202" stroke-width="6.5" stroke-linecap="round" stroke-dasharray="6.5,13.0"/>
  <line x1="284.6" y1="522.5" x2="308.4" y2="518.4" stroke="#020202" stroke-width="6.5" stroke-linecap="round"/>
  <use x="595.3" y="94.5" xlink:href="#x0a1"/>
  <line x1="611.4" y1="93.0" x2="660.7" y2="105.8" stroke="#050505" stroke-width="6.5" stroke-linecap="round"/>
  <line x1="608.6" y1="103.8" x2="657.9" y2="116.6" stroke="#050505" stroke-width="6.5" stroke-linecap="round" stroke-dasharray="6.5,13.0"/>
  <use x="677.9" y="117.6" xlink:href="#x0a54"/>
  <line x1="661.8" y1="118.8" x2="612.8" y2="104.7" stroke="#055c05" stroke-width="6.5" stroke-linecap="round" stroke-dasharray="6.5,13.0"/>
  <line x1="664.9" y1="108.1" x2="615.9" y2="94.0" stroke="#055c05" stroke-width="6.5" stroke-linecap="round"/>
  <use x="673.9" y="115.1" xlink:href="#x0a2"/>
  <use x="599.8" y="95.1" xlink:href="#x0a53"/>
  <use x="384.3" y="398.5" xlink:href="#x0a20"/>
  <line x1="386.6" y1="410.0" x2="376.4" y2="443.2" stroke="#000000" stroke-width="6.5" stroke-linecap="round"/>
  <line x1="375.9" y1="406.7" x2="365.7" y2="440.0" stroke="#000000" stroke-width="6.5" stroke-linecap="round" stroke-dasharray="6.5,13.0"/>
  <use x="384.4" y="398.4" xlink:href="#x0a72"/>
  <line x1="386.8" y1="410.0" x2="376.8" y2="444.1" stroke="#005900" stroke-width="6.5" stroke-linecap="round"/>
  <line x1="376.1" y1="406.9" x2="366.1" y2="441.0" stroke="#005900" stroke-width="6.5" stroke-linecap="round" stroke-dasharray="6.5,13.0"/>
  <use x="314.8" y="512.7" xlink:href="#x0a70"/>
  <line x1="320.6" y1="497.8" x2="354.4" y2="460.1" stroke="#005900" stroke-width="6.5" stroke-linecap="round" stroke-dasharray="6.5,13.0"/>
  <line x1="328.9" y1="505.2" x2="362.7" y2="467.5" stroke="#005900" stroke-width="6.5" stroke-linecap="round"/>
  <use x="314.6" y="511.7" xlink:href="#x0a18"/>
  <line x1="320.4" y1="496.7" x2="353.9" y2="459.0" stroke="#000000" stroke-width="6.5" stroke-linecap="round" stroke-dasharray="6.5,13.0"/>
  <line x1="328.7" y1="504.1" x2="362.2" y2="466.4" stroke="#000000" stroke-width="6.5" stroke-linecap="round"/>
  <use x="368.0" y="451.5" xlink:href="#x0a19"/>
  <use x="368.5" y="452.6" xlink:href="#x0a71"/>
</svg>