<svg xmlns="http://www.w3.org/2000/svg" xmlns:xlink="http://www.w3.org/1999/xlink" width="800" height="715">
  <rect width="100%" height="100%" fill="#ffffff"/>
  <defs>
    <g id="a0"><radialGradient id="g0" cx=".5" cy=".5" fx=".33" fy=".33" r=".66"><stop offset="0%" stop-color="#c3c3c3"/><stop offset="100%" stop-color="#888888"/></radialGradient><circle cx="0" cy="0" r="45.3" fill="url(#g0)" stroke="#000000" stroke-width="8.4"/></g>
    <g id="a1"><radialGradient id="g1" cx=".5" cy=".5" fx=".33" fy=".33" r=".66"><stop offset="0%" stop-color="#c3c3c3"/><stop offset="100%" stop-color="#888888"/></radialGradient><circle cx="0" cy="0" r="45.3" fill="url(#g1)" stroke="#000000" stroke-width="8.4"/></g>
    <g id="a2"><radialGradient id="g2" cx=".5" cy=".5" fx=".33" fy=".33" r=".66"><stop offset="0%" stop-color="#c3c3c3"/><stop offset="100%" stop-color="#888888"/></radialGradient><circle cx="0" cy="0" r="45.3" fill="url(#g2)" stroke="#000000" stroke-width="8.4"/></g>
    <g id="a3"><radialGradient id="g3" cx=".5" cy=".5" fx=".33" fy=".33" r=".66"><stop offset="0%" stop-color="#c3c3c3"/><stop offset="100%" stop-color="#888888"/></radialGradient><circle cx="0" cy="0" r="45.3" fill="url(#g3)" stroke="#000000" stroke-width="8.4"/></g>
    <g id="a4"><radialGradient id="g4" cx=".5" cy=".5" fx=".33" fy=".33" r=".66"><stop offset="0%" stop-color="#c3c3c3"/><stop offset="100%" stop-color="#888888"/></radialGradient><circle cx="0" cy="0" r="45.3" fill="url(#g4)" stroke="#000000" stroke-width="8.4"/></g>
    <g id="a5"><radialGradient id="g5" cx=".5" cy=".5" fx=".33" fy=".33" r=".66"><stop offset="0%" stop-color="#c3c3c3"/><stop offset="100%" stop-color="#888888"/></radialGradient><circle cx="0" cy="0" r="45.3" fill="url(#g5)" stroke="#000000" stroke-width="8.4"/></g>
    <g id="a6"><radialGradient id="g6" cx=".5" cy=".5" fx=".33" fy=".33" r=".66"><stop offset="0%" stop-color="#ffffff"/><stop offset="100%" stop-color="#cccccc"/></radialGradient><circle cx="0" cy="0" r="23.8" fill="url(#g6)" stroke="#000000" stroke-width="8.4"/></g>
    <g id="a7"><radialGradient id="g7" cx=".5" cy=".5" fx=".33" fy=".33" r=".66"><stop offset="0%" stop-color="#ffffff"/><stop offset="100%" stop-color="#cccccc"/></radialGradient><circle cx="0" cy="0" r="23.8" fill="url(#g7)" stroke="#000000" stroke-width="8.4"/></g>
    <g id="a8"><radialGradient id="g8" cx=".5" cy=".5" fx=".33" fy=".33" r=".66"><stop offset="0%" stop-color="#ffffff"/><stop offset="100%" stop-color="#cccccc"/></radialGradient><circle cx="0" cy="0" r="23.8" fill="url(#g8)" stroke="#000000" stroke-width="8.4"/></g>
    <g id="a9"><radialGradient id="g9" cx=".5" cy=".5" fx=".33" fy=".33" r=".66"><stop offset="0%" stop-color="#ffffff"/><stop offset="100%" stop-color="#cccccc"/></radialGradient><circle cx="0" cy="0" r="23.8" fill="url(#g9)" stroke="#000000" stroke-width="8.4"/></g>
    <g id="a10"><radialGradient id="g10" cx=".5" cy=".5" fx=".33" fy=".33" r=".66"><stop offset="0%" stop-color="#ffffff"/><stop offset="100%" stop-color="#cccccc"/></radialGradient><circle cx="0" cy="0" r="23.8" fill="url(#g10)" stroke="#000000" stroke-width="8.4"/></g>
    <g id="a11"><radialGradient id="g11" cx=".5" cy=".5" fx=".33" fy=".33" r=".66"><stop offset="0%" stop-color="#ffffff"/><stop offset="100%" stop-color="#cccccc"/></radialGradient><circle cx="0" cy="0" r="23.8" fill="url(#g11)" stroke="#000000" stroke-width="8.4"/></g>
  </defs>
  <use x="488.5" y="510.7" xlink:href="#a0"/>
  <line x1="447.7" y1="523.4" x2="352.3" y2="523.4" stroke="#000000" stroke-width="14.7" stroke-linecap="round"/>
  <line x1="447.7" y1="498.1" x2="352.3" y2="498.1" stroke="#000000" stroke-width="14.7" stroke-linecap="round" stroke-dasharray="14.7,29.5"/>
  <line x1="497.9" y1="469.1" x2="545.6" y2="386.5" stroke="#000000" stroke-width="14.7" stroke-linecap="round" stroke-dasharray="14.7,29.5"/>
  <line x1="519.8" y1="481.8" x2="567.5" y2="399.1" stroke="#000000" stroke-width="14.7" stroke-linecap="round"/>
  <line x1="508.9" y1="546.0" x2="546.6" y2="611.5" stroke="#000000" stroke-width="21.1" stroke-linecap="round"/>
  <use x="311.5" y="510.7" xlink:href="#a1"/>
  <line x1="280.2" y1="481.8" x2="232.5" y2="399.1" stroke="#000000" stroke-width="14.7" stroke-linecap="round"/>
  <line x1="302.1" y1="469.1" x2="254.4" y2="386.5" stroke="#000000" stroke-width="14.7" stroke-linecap="round" stroke-dasharray="14.7,29.5"/>
  <line x1="291.1" y1="546.0" x2="253.4" y2="611.5" stroke="#000000" stroke-width="21.1" stroke-linecap="round"/>
  <use x="223.0" y="357.5" xlink:href="#a2"/>
  <line x1="232.5" y1="315.9" x2="280.2" y2="233.2" stroke="#000000" stroke-width="14.7" stroke-linecap="round"/>
  <line x1="254.4" y1="328.5" x2="302.1" y2="245.9" stroke="#000000" stroke-width="14.7" stroke-linecap="round" stroke-dasharray="14.7,29.5"/>
  <line x1="182.3" y1="357.5" x2="106.7" y2="357.5" stroke="#000000" stroke-width="21.1" stroke-linecap="round"/>
  <use x="311.5" y="204.3" xlink:href="#a3"/>
  <line x1="352.3" y1="191.6" x2="447.7" y2="191.6" stroke="#000000" stroke-width="14.7" stroke-linecap="round"/>
  <line x1="352.3" y1="216.9" x2="447.7" y2="216.9" stroke="#000000" stroke-width="14.7" stroke-linecap="round" stroke-dasharray="14.7,29.5"/>
  <line x1="291.1" y1="169.0" x2="253.4" y2="103.5" stroke="#000000" stroke-width="21.1" stroke-linecap="round"/>
  <use x="488.5" y="204.3" xlink:href="#a4"/>
  <line x1="519.8" y1="233.2" x2="567.5" y2="315.9" stroke="#000000" stroke-width="14.7" stroke-linecap="round"/>
  <line x1="497.9" y1="245.9" x2="545.6" y2="328.5" stroke="#000000" stroke-width="14.7" stroke-linecap="round" stroke-dasharray="14.7,29.5"/>
  <line x1="508.9" y1="169.0" x2="546.6" y2="103.5" stroke="#000000" stroke-width="21.1" stroke-linecap="round"/>
  <use x="577.0" y="357.5" xlink:href="#a5"/>
  <line x1="617.7" y1="357.5" x2="693.3" y2="357.5" stroke="#000000" stroke-width="21.1" stroke-linecap="round"/>
  <use x="557.4" y="630.0" xlink:href="#a6"/>
  <use x="242.6" y="630.0" xlink:href="#a7"/>
  <use x="85.3" y="357.5" xlink:href="#a8"/>
  <use x="242.6" y="85.0" xlink:href="#a9"/>
  <use x="557.4" y="85.0" xlink:href="#a10"/>
  <use x="714.7" y="357.5" xlink:href="#a11"/>
</svg>