<svg xmlns="http://www.w3.org/2000/svg" xmlns:xlink="http://www.w3.org/1999/xlink" width="799" height="606">
  <rect width="100%" height="100%" fill="#ffffff"/>
  <defs>
    <g id="a0"><radialGradient id="g0" cx=".5" cy=".5" fx=".33" fy=".33" r=".66"><stop offset="0%" stop-color="#cacaca"/><stop offset="100%" stop-color="#969696"/></radialGradient><circle cx="0" cy="0" r="31.7" fill="url(#g0)" stroke="#2d2d2d" stroke-width="5.9"/></g>
    <g id="a1"><radialGradient id="g1" cx=".5" cy=".5" fx=".33" fy=".33" r=".66"><stop offset="0%" stop-color="#cecece"/><stop offset="100%" stop-color="#9e9e9e"/></radialGradient><circle cx="0" cy="0" r="31.7" fill="url(#g1)" stroke="#444444" stroke-width="5.9"/></g>
    <g id="a2"><radialGradient id="g2" cx=".5" cy=".5" fx=".33" fy=".33" r=".66"><stop offset="0%" stop-color="#c5c5c5"/><stop offset="100%" stop-color="#8c8c8c"/></radialGradient><circle cx="0" cy="0" r="31.7" fill="url(#g2)" stroke="#0d0d0d" stroke-width="5.9"/></g>
    <g id="a3"><radialGradient id="g3" cx=".5" cy=".5" fx=".33" fy=".33" r=".66"><stop offset="0%" stop-color="#c3c3c3"/><stop offset="100%" stop-color="#888888"/></radialGradient><circle cx="0" cy="0" r="31.7" fill="url(#g3)" stroke="#000000" stroke-width="5.9"/></g>
    <g id="a4"><radialGradient id="g4" cx=".5" cy=".5" fx=".33" fy=".33" r=".66"><stop offset="0%" stop-color="#c4c4c4"/><stop offset="100%" stop-color="#8a8a8a"/></radialGradient><circle cx="0" cy="0" r="31.7" fill="url(#g4)" stroke="#060606" stroke-width="5.9"/></g>
    <g id="a5"><radialGradient id="g5" cx=".5" cy=".5" fx=".33" fy=".33" r=".66"><stop offset="0%" stop-color="#c8c8c8"/><stop offset="100%" stop-color="#939393"/></radialGradient><circle cx="0" cy="0" r="31.7" fill="url(#g5)" stroke="#242424" stroke-width="5.9"/></g>
    <g id="a6"><radialGradient id="g6" cx=".5" cy=".5" fx=".33" fy=".33" r=".66"><stop offset="0%" stop-color="#d2d2d2"/><stop offset="100%" stop-color="#a7a7a7"/></radialGradient><circle cx="0" cy="0" r="31.7" fill="url(#g6)" stroke="#606060" stroke-width="5.9"/></g>
    <g id="a7"><radialGradient id="g7" cx=".5" cy=".5" fx=".33" fy=".33" r=".66"><stop offset="0%" stop-color="#dbdbdb"/><stop offset="100%" stop-color="#b9b9b9"/></radialGradient><circle cx="0" cy="0" r="31.7" fill="url(#g7)" stroke="#969696" stroke-width="5.9"/></g>
    <g id="a8"><radialGradient id="g8" cx=".5" cy=".5" fx=".33" fy=".33" r=".66"><stop offset="0%" stop-color="#7388fa"/><stop offset="100%" stop-color="#2d46c8"/></radialGradient><circle cx="0" cy="0" r="29.8" fill="url(#g8)" stroke="#0c0c0c" stroke-width="5.9"/></g>
    <g id="a9"><radialGradient id="g9" cx=".5" cy=".5" fx=".33" fy=".33" r=".66"><stop offset="0%" stop-color="#7c90fa"/><stop offset="100%" stop-color="#3b52cb"/></radialGradient><circle cx="0" cy="0" r="29.8" fill="url(#g9)" stroke="#232323" stroke-width="5.9"/></g>
    <g id="a10"><radialGradient id="g10" cx=".5" cy=".5" fx=".33" fy=".33" r=".66"><stop offset="0%" stop-color="#6e84fa"/><stop offset="100%" stop-color="#2640c6"/></radialGradient><circle cx="0" cy="0" r="29.8" fill="url(#g10)" stroke="#010101" stroke-width="5.9"/></g>
    <g id="a11"><radialGradient id="g11" cx=".5" cy=".5" fx=".33" fy=".33" r=".66"><stop offset="0%" stop-color="#92a2fb"/><stop offset="100%" stop-color="#5c70d4"/></radialGradient><circle cx="0" cy="0" r="29.8" fill="url(#g11)" stroke="#5b5b5b" stroke-width="5.9"/></g>
    <g id="a12"><radialGradient id="g12" cx=".5" cy=".5" fx=".33" fy=".33" r=".66"><stop offset="0%" stop-color="#ff6262"/><stop offset="100%" stop-color="#cf1d1d"/></radialGradient><circle cx="0" cy="0" r="28.4" fill="url(#g12)" stroke="#1c1c1c" stroke-width="5.9"/></g>
    <g id="a13"><radialGradient id="g13" cx=".5" cy=".5" fx=".33" fy=".33" r=".66"><stop offset="0%" stop-color="#ff9d9d"/><stop offset="100%" stop-color="#e17272"/></radialGradient><circle cx="0" cy="0" r="28.4" fill="url(#g13)" stroke="#9b9b9b" stroke-width="5.9"/></g>
  </defs>
  <defs>
    <radialGradient id="mo_pos_front" cx=".5" cy=".5" fx=".33" fy=".33" r=".66"><stop offset="0%" stop-color="#9f3f3f"/><stop offset="100%" stop-color="#4c0000"/></radialGradient>
    <radialGradient id="mo_neg_front" cx=".5" cy=".5" fx=".33" fy=".33" r=".66"><stop offset="0%" stop-color="#3f9f9f"/><stop offset="100%" stop-color="#004c4c"/></radialGradient>
  </defs>
  <g opacity="0.60">
    <path d="M 442.0 158.7 C 443.2 162.3 444.4 166.0 444.6 169.7 C 444.8 173.4 443.8 177.2 443.2 180.9 C 442.7 184.6 442.7 188.5 441.2 192.0 C 439.8 195.5 437.3 198.7 434.7 201.8 C 432.2 204.8 429.0 207.4 426.0 210.1 C 422.9 212.8 419.9 215.5 416.5 217.9 C 413.2 220.3 409.8 222.8 406.0 224.5 C 402.2 226.2 397.9 227.3 393.7 228.1 C 389.5 228.8 385.0 228.9 380.6 229.0 C 376.3 229.1 371.9 229.3 367.7 228.6 C 363.6 227.8 359.5 226.0 355.6 224.4 C 351.7 222.7 347.7 221.0 344.3 218.7 C 340.9 216.4 337.9 213.5 335.2 210.6 C 332.5 207.7 330.2 204.4 328.2 201.1 C 326.2 197.8 324.3 194.3 323.1 190.7 C 321.9 187.1 321.6 183.3 320.8 179.6 C 320.1 175.9 318.5 172.2 318.6 168.5 C 318.7 164.8 320.4 161.1 321.5 157.5 C 322.7 153.9 323.8 150.2 325.7 146.9 C 327.6 143.5 330.0 140.2 332.9 137.5 C 335.9 134.8 339.5 132.5 343.3 130.7 C 347.1 128.9 351.4 127.9 355.5 126.8 C 359.7 125.7 364.0 124.5 368.3 124.1 C 372.6 123.7 376.9 124.1 381.3 124.2 C 385.6 124.4 390.0 124.7 394.3 125.3 C 398.6 125.8 403.0 126.5 407.1 127.8 C 411.2 129.0 415.2 130.7 418.9 132.6 C 422.6 134.5 426.4 136.6 429.4 139.3 C 432.4 141.9 434.9 145.1 437.0 148.3 C 439.1 151.6 440.7 155.2 442.0 158.7 Z" fill="#a64c4c" fill-rule="evenodd" stroke="none"/>
  </g>
  <g opacity="0.60">
    <path d="M 600.7 251.1 C 602.6 254.3 604.6 257.7 605.1 261.3 C 605.6 264.9 604.4 268.8 603.8 272.5 C 603.2 276.1 603.2 280.0 601.6 283.3 C 599.9 286.7 596.7 289.5 593.9 292.4 C 591.1 295.2 588.2 298.2 584.7 300.3 C 581.3 302.4 577.0 303.6 573.0 304.9 C 569.0 306.2 564.8 307.9 560.6 308.3 C 556.5 308.6 552.2 308.0 548.1 307.1 C 544.1 306.1 539.9 304.4 536.3 302.5 C 532.6 300.6 529.0 298.4 526.2 295.7 C 523.4 293.0 520.8 289.7 519.3 286.3 C 517.8 282.9 517.4 279.2 517.0 275.5 C 516.6 271.8 516.4 267.9 517.0 264.3 C 517.5 260.7 518.4 257.0 520.3 253.8 C 522.2 250.6 525.4 247.8 528.3 245.1 C 531.3 242.4 534.6 239.9 537.9 237.5 C 541.3 235.2 544.6 232.4 548.3 230.8 C 552.0 229.1 556.1 227.8 560.2 227.6 C 564.3 227.5 568.8 228.8 573.0 229.7 C 577.1 230.7 581.6 231.3 585.1 233.3 C 588.5 235.3 591.1 238.6 593.7 241.6 C 596.3 244.6 598.8 247.8 600.7 251.1 Z" fill="#a64c4c" fill-rule="evenodd" stroke="none"/>
  </g>
  <g opacity="0.60">
    <path d="M 486.0 254.1 C 486.9 257.7 487.1 261.4 486.9 265.2 C 486.8 268.9 486.2 272.7 485.3 276.4 C 484.3 280.0 483.0 283.6 481.4 287.1 C 479.7 290.5 477.3 293.7 475.2 297.1 C 473.2 300.4 471.2 303.8 469.1 307.1 C 467.0 310.4 465.1 313.8 462.7 317.0 C 460.4 320.2 457.8 323.3 455.0 326.1 C 452.2 329.0 449.0 331.6 445.8 334.1 C 442.5 336.7 439.0 339.0 435.6 341.3 C 432.1 343.6 428.6 345.9 424.9 347.9 C 421.2 349.9 417.1 351.5 413.2 353.2 C 409.3 354.9 405.4 356.7 401.4 358.1 C 397.3 359.5 393.1 360.6 388.9 361.7 C 384.7 362.8 380.5 364.4 376.3 364.9 C 372.0 365.3 367.7 365.1 363.5 364.4 C 359.3 363.7 355.1 362.2 351.1 360.6 C 347.2 359.1 343.2 357.4 339.9 355.1 C 336.6 352.7 333.9 349.6 331.3 346.6 C 328.7 343.5 326.3 340.3 324.3 337.0 C 322.3 333.6 320.0 330.2 319.3 326.6 C 318.6 323.0 319.7 319.1 320.0 315.3 C 320.4 311.6 320.1 307.6 321.4 304.1 C 322.6 300.6 325.6 297.5 327.8 294.2 C 330.0 290.9 332.2 287.7 334.5 284.5 C 336.9 281.3 339.5 278.3 341.9 275.1 C 344.3 272.0 346.8 268.9 348.9 265.5 C 350.9 262.2 352.6 258.7 354.3 255.3 C 356.1 251.8 357.6 248.2 359.4 244.8 C 361.2 241.4 362.9 237.9 365.1 234.6 C 367.3 231.4 370.0 228.3 372.6 225.3 C 375.3 222.4 378.0 219.4 381.1 216.7 C 384.1 214.0 387.4 211.3 390.9 209.2 C 394.4 207.0 398.2 205.1 402.2 203.7 C 406.3 202.3 410.7 201.4 414.9 200.7 C 419.2 200.0 423.5 199.2 427.8 199.5 C 432.1 199.7 436.4 201.1 440.5 202.3 C 444.6 203.5 448.9 204.8 452.6 206.7 C 456.3 208.6 459.6 211.3 462.6 214.0 C 465.6 216.7 468.3 219.8 470.6 222.9 C 472.9 226.1 474.7 229.6 476.6 233.0 C 478.5 236.4 480.2 239.9 481.8 243.4 C 483.3 246.9 485.2 250.5 486.0 254.1 Z" fill="#4ca6a6" fill-rule="evenodd" stroke="none"/>
  </g>
  <g opacity="0.60">
    <path d="M 300.9 332.7 C 301.9 336.3 302.5 340.2 302.7 343.9 C 302.8 347.6 302.6 351.3 301.5 354.9 C 300.5 358.5 298.4 362.0 296.3 365.3 C 294.2 368.6 291.9 371.9 289.1 374.8 C 286.4 377.7 283.1 380.3 279.6 382.7 C 276.2 385.0 272.4 387.0 268.5 388.7 C 264.7 390.5 260.5 391.7 256.4 393.2 C 252.3 394.6 248.3 396.6 244.2 397.4 C 240.0 398.3 235.8 398.6 231.5 398.4 C 227.2 398.3 222.7 397.6 218.5 396.6 C 214.3 395.7 210.1 394.5 206.3 392.7 C 202.5 390.9 199.0 388.4 195.8 385.9 C 192.6 383.3 189.7 380.4 187.1 377.4 C 184.5 374.3 182.2 371.0 180.2 367.7 C 178.2 364.3 176.4 360.8 175.1 357.2 C 173.7 353.7 172.7 350.0 172.2 346.3 C 171.6 342.6 171.7 338.7 171.8 334.9 C 171.9 331.2 171.9 327.4 172.8 323.7 C 173.8 320.1 175.7 316.5 177.6 313.2 C 179.6 309.8 181.8 306.4 184.7 303.6 C 187.6 300.8 191.2 298.4 194.9 296.4 C 198.6 294.4 202.7 292.8 206.8 291.6 C 210.9 290.4 215.3 289.9 219.6 289.3 C 224.0 288.8 228.4 288.4 232.8 288.4 C 237.2 288.4 241.5 288.7 245.8 289.3 C 250.1 290.0 254.4 291.1 258.6 292.4 C 262.7 293.6 266.9 295.0 270.5 296.9 C 274.2 298.9 277.5 301.6 280.6 304.2 C 283.8 306.8 286.7 309.7 289.4 312.7 C 292.1 315.7 294.9 318.7 296.8 322.1 C 298.7 325.4 299.9 329.0 300.9 332.7 Z" fill="#a64c4c" fill-rule="evenodd" stroke="none"/>
  </g>
  <g opacity="0.60">
    <path d="M 459.6 391.4 C 461.7 394.6 463.0 398.2 464.2 401.8 C 465.5 405.3 466.5 409.1 467.0 412.7 C 467.4 416.4 467.4 420.1 466.9 423.8 C 466.4 427.4 465.2 431.2 464.0 434.7 C 462.7 438.3 461.4 441.9 459.3 445.1 C 457.2 448.3 454.2 451.1 451.4 454.0 C 448.6 456.8 445.5 459.5 442.7 462.3 C 439.8 465.1 437.3 468.2 434.3 470.9 C 431.3 473.6 428.4 476.7 424.8 478.6 C 421.2 480.5 416.7 481.1 412.5 482.3 C 408.4 483.5 404.3 485.1 400.1 485.7 C 395.9 486.3 391.5 486.0 387.2 485.9 C 382.9 485.9 378.4 486.0 374.2 485.4 C 369.9 484.8 365.7 483.7 361.6 482.5 C 357.5 481.4 353.3 480.1 349.5 478.4 C 345.7 476.7 341.8 474.7 338.8 472.2 C 335.9 469.6 332.5 466.4 331.8 463.1 C 331.1 459.8 333.5 455.8 334.4 452.1 C 335.4 448.5 335.6 444.4 337.5 441.2 C 339.4 438.0 343.6 435.8 345.9 432.7 C 348.2 429.5 349.7 426.0 351.3 422.5 C 353.0 419.0 354.3 415.5 355.7 411.9 C 357.2 408.4 358.5 404.8 360.2 401.4 C 361.9 398.0 363.6 394.5 365.9 391.4 C 368.2 388.2 371.0 385.3 374.0 382.6 C 376.9 379.8 380.1 377.3 383.4 374.9 C 386.7 372.5 390.0 369.7 393.8 368.1 C 397.5 366.5 401.8 365.9 406.0 365.5 C 410.2 365.0 414.8 365.0 419.0 365.6 C 423.2 366.1 427.5 367.0 431.3 368.6 C 435.1 370.1 438.4 372.8 441.8 375.1 C 445.1 377.5 448.4 380.0 451.4 382.7 C 454.4 385.4 457.5 388.2 459.6 391.4 Z" fill="#a64c4c" fill-rule="evenodd" stroke="none"/>
  </g>
  <g opacity="0.60">
    <path d="M 283.2 416.3 C 284.4 420.0 284.7 423.9 285.2 427.7 C 285.7 431.5 286.4 435.3 286.4 439.1 C 286.4 443.0 285.8 446.8 285.3 450.6 C 284.7 454.4 284.3 458.3 283.3 462.0 C 282.3 465.7 280.9 469.4 279.3 472.9 C 277.6 476.5 275.7 480.0 273.4 483.3 C 271.0 486.5 268.3 489.6 265.3 492.5 C 262.4 495.3 259.0 498.0 255.5 500.3 C 252.1 502.7 248.4 505.1 244.5 506.8 C 240.6 508.6 236.3 509.7 232.0 510.7 C 227.8 511.8 223.3 512.9 218.9 513.2 C 214.6 513.5 210.2 513.3 205.9 512.7 C 201.5 512.1 197.1 510.9 193.0 509.5 C 188.8 508.2 184.8 506.6 181.0 504.6 C 177.3 502.6 173.9 500.0 170.5 497.5 C 167.1 495.0 163.8 492.4 160.7 489.7 C 157.6 486.9 154.7 484.0 151.9 481.0 C 149.2 477.9 146.3 474.9 144.1 471.6 C 141.8 468.4 139.6 465.0 138.4 461.3 C 137.3 457.7 137.1 453.7 136.9 449.9 C 136.6 446.1 136.2 442.3 137.0 438.6 C 137.9 434.9 140.3 431.4 142.1 427.9 C 143.8 424.4 145.4 420.7 147.6 417.4 C 149.9 414.2 152.8 411.2 155.6 408.2 C 158.4 405.3 161.5 402.4 164.5 399.6 C 167.6 396.8 170.6 393.9 173.9 391.4 C 177.3 388.9 180.7 386.3 184.5 384.4 C 188.4 382.6 192.8 381.6 197.1 380.5 C 201.3 379.4 205.7 378.2 210.1 377.7 C 214.5 377.3 218.9 377.7 223.4 377.9 C 227.8 378.1 232.4 378.3 236.7 379.1 C 241.1 379.9 245.4 381.0 249.4 382.5 C 253.5 384.0 257.5 385.9 261.1 388.2 C 264.7 390.4 268.0 393.1 270.9 396.0 C 273.7 398.9 276.0 402.3 278.1 405.7 C 280.2 409.1 282.1 412.6 283.2 416.3 Z" fill="#4ca6a6" fill-rule="evenodd" stroke="none"/>
  </g>
  <use x="397.6" y="142.9" xlink:href="#a13"/>
  <line x1="415.2" y1="156.0" x2="436.2" y2="193.0" stroke="#454545" stroke-width="10.3" stroke-linecap="round"/>
  <line x1="399.9" y1="164.8" x2="420.8" y2="201.7" stroke="#454545" stroke-width="10.3" stroke-linecap="round"/>
  <use x="643.8" y="151.5" xlink:href="#a7"/>
  <line x1="626.9" y1="169.2" x2="581.9" y2="216.4" stroke="#434343" stroke-width="14.7" stroke-linecap="round"/>
  <use x="439.6" y="216.9" xlink:href="#a6"/>
  <line x1="467.9" y1="220.5" x2="539.4" y2="229.7" stroke="#343434" stroke-width="14.7" stroke-linecap="round"/>
  <line x1="425.0" y1="234.3" x2="388.2" y2="278.2" stroke="#262626" stroke-width="14.7" stroke-linecap="round"/>
  <use x="566.0" y="233.1" xlink:href="#a11"/>
  <line x1="577.5" y1="248.8" x2="608.4" y2="291.1" stroke="#222222" stroke-width="14.7" stroke-linecap="round"/>
  <use x="157.1" y="241.2" xlink:href="#a1"/>
  <line x1="177.8" y1="256.2" x2="231.4" y2="295.1" stroke="#1c1c1c" stroke-width="14.7" stroke-linecap="round"/>
  <use x="373.6" y="295.7" xlink:href="#a0"/>
  <line x1="346.5" y1="307.6" x2="278.2" y2="315.1" stroke="#161616" stroke-width="10.3" stroke-linecap="round" stroke-dasharray="10.3,20.6"/>
  <line x1="344.6" y1="290.0" x2="276.2" y2="297.6" stroke="#161616" stroke-width="10.3" stroke-linecap="round"/>
  <line x1="393.4" y1="309.8" x2="422.5" y2="354.2" stroke="#0f0f0f" stroke-width="10.3" stroke-linecap="round"/>
  <line x1="378.6" y1="319.5" x2="407.6" y2="363.9" stroke="#0f0f0f" stroke-width="10.3" stroke-linecap="round" stroke-dasharray="10.3,20.6"/>
  <use x="620.6" y="307.7" xlink:href="#a5"/>
  <line x1="648.2" y1="297.3" x2="701.5" y2="294.4" stroke="#121212" stroke-width="10.3" stroke-linecap="round"/>
  <line x1="649.2" y1="315.0" x2="702.5" y2="312.0" stroke="#121212" stroke-width="10.3" stroke-linecap="round"/>
  <line x1="605.1" y1="327.4" x2="565.8" y2="377.1" stroke="#0c0c0c" stroke-width="14.7" stroke-linecap="round"/>
  <use x="250.8" y="309.3" xlink:href="#a9"/>
  <line x1="255.9" y1="330.1" x2="246.8" y2="378.2" stroke="#0a0a0a" stroke-width="10.3" stroke-linecap="round" stroke-dasharray="10.3,20.6"/>
  <line x1="238.5" y1="326.8" x2="229.4" y2="374.9" stroke="#0a0a0a" stroke-width="10.3" stroke-linecap="round"/>
  <use x="727.2" y="301.8" xlink:href="#a12"/>
  <use x="427.5" y="378.0" xlink:href="#a2"/>
  <line x1="455.7" y1="382.0" x2="524.7" y2="391.8" stroke="#070707" stroke-width="14.7" stroke-linecap="round"/>
  <line x1="412.6" y1="399.4" x2="365.0" y2="433.2" stroke="#030303" stroke-width="10.3" stroke-linecap="round"/>
  <line x1="402.3" y1="385.0" x2="354.8" y2="418.8" stroke="#030303" stroke-width="10.3" stroke-linecap="round" stroke-dasharray="10.3,20.6"/>
  <use x="551.2" y="395.6" xlink:href="#a8"/>
  <line x1="562.2" y1="409.0" x2="592.9" y2="446.6" stroke="#010101" stroke-width="14.7" stroke-linecap="round"/>
  <use x="234.2" y="396.9" xlink:href="#a4"/>
  <line x1="262.8" y1="398.7" x2="320.5" y2="421.7" stroke="#010101" stroke-width="10.3" stroke-linecap="round" stroke-dasharray="10.3,20.6"/>
  <line x1="256.3" y1="415.2" x2="313.9" y2="438.1" stroke="#010101" stroke-width="10.3" stroke-linecap="round"/>
  <use x="341.0" y="439.4" xlink:href="#a10"/>
  <use x="604.5" y="460.8" xlink:href="#a3"/>
  <g opacity="0.60">
    <path d="M 442.0 102.9 C 443.4 106.5 444.5 110.2 445.4 113.9 C 446.4 117.6 447.2 121.3 447.5 125.0 C 447.8 128.8 447.4 132.6 447.2 136.4 C 447.0 140.1 447.1 144.0 446.2 147.6 C 445.4 151.3 443.9 155.0 442.2 158.4 C 440.4 161.9 438.4 165.3 435.8 168.3 C 433.2 171.4 430.1 174.2 426.7 176.5 C 423.2 178.8 419.2 180.6 415.2 182.1 C 411.3 183.7 407.0 185.0 402.8 185.8 C 398.5 186.5 394.1 186.6 389.7 186.7 C 385.4 186.8 380.9 186.8 376.5 186.4 C 372.2 186.0 367.8 185.5 363.7 184.3 C 359.5 183.2 355.4 181.6 351.7 179.7 C 348.0 177.7 344.4 175.4 341.3 172.8 C 338.2 170.2 335.5 167.1 333.3 163.9 C 331.0 160.7 329.1 157.2 327.7 153.6 C 326.4 150.1 325.5 146.3 325.1 142.6 C 324.6 138.9 324.8 135.0 324.9 131.2 C 324.9 127.5 324.9 123.7 325.4 119.9 C 325.9 116.2 326.9 112.5 327.9 108.8 C 329.0 105.1 329.9 101.4 331.5 97.9 C 333.1 94.4 335.1 90.9 337.5 87.8 C 339.9 84.7 342.6 81.6 345.9 79.1 C 349.1 76.6 353.0 74.6 356.8 72.7 C 360.6 70.9 364.6 68.9 368.7 68.0 C 372.9 67.1 377.4 67.3 381.7 67.2 C 386.1 67.1 390.7 66.7 394.9 67.3 C 399.2 67.9 403.4 69.1 407.4 70.6 C 411.4 72.1 415.3 74.0 418.9 76.2 C 422.5 78.3 426.0 80.6 429.0 83.4 C 432.0 86.1 434.6 89.3 436.7 92.5 C 438.9 95.8 440.5 99.4 442.0 102.9 Z" fill="url(#mo_neg_front)" fill-rule="evenodd" stroke="none"/>
  </g>
  <g opacity="0.60">
    <path d="M 591.9 212.3 C 592.7 216.0 591.4 219.9 591.0 223.7 C 590.5 227.5 590.8 231.7 589.2 235.2 C 587.6 238.6 584.6 241.7 581.5 244.4 C 578.4 247.0 574.3 249.0 570.6 251.1 C 566.8 253.2 562.9 256.3 558.9 256.8 C 555.0 257.4 550.8 255.5 546.7 254.2 C 542.7 253.0 538.4 251.2 534.7 249.2 C 530.9 247.1 527.0 244.9 524.5 242.0 C 521.9 239.0 520.5 235.3 519.5 231.7 C 518.6 228.1 518.5 223.9 518.7 220.2 C 518.9 216.4 519.1 212.5 520.6 209.0 C 522.2 205.6 524.9 202.1 528.0 199.4 C 531.1 196.8 535.2 195.0 539.1 193.2 C 543.0 191.4 547.3 189.4 551.5 188.8 C 555.7 188.2 560.1 188.5 564.2 189.4 C 568.3 190.4 572.7 192.2 576.3 194.3 C 579.9 196.4 583.3 199.0 585.9 202.0 C 588.5 205.0 591.0 208.7 591.9 212.3 Z" fill="url(#mo_neg_front)" fill-rule="evenodd" stroke="none"/>
  </g>
  <g opacity="0.60">
    <path d="M 486.0 176.7 C 487.8 180.1 489.4 183.7 490.4 187.4 C 491.3 191.0 491.4 194.8 491.6 198.5 C 491.8 202.3 492.1 206.1 491.7 209.8 C 491.3 213.5 490.4 217.2 489.2 220.8 C 488.1 224.4 486.6 228.0 484.8 231.4 C 483.0 234.8 480.9 238.1 478.6 241.3 C 476.2 244.4 473.5 247.4 470.6 250.2 C 467.8 253.1 464.6 255.7 461.5 258.3 C 458.3 260.9 455.1 263.5 451.8 266.0 C 448.5 268.5 445.2 270.9 441.8 273.3 C 438.5 275.7 435.0 278.0 431.7 280.5 C 428.4 282.9 425.1 285.4 421.8 287.9 C 418.5 290.4 415.3 292.9 412.0 295.4 C 408.8 297.9 405.7 300.7 402.2 302.8 C 398.7 305.0 394.9 306.9 391.0 308.5 C 387.1 310.2 382.9 311.7 378.7 312.6 C 374.6 313.4 370.2 314.1 366.0 313.6 C 361.9 313.2 357.6 311.5 353.7 309.8 C 349.9 308.2 345.9 306.4 342.8 303.8 C 339.7 301.3 337.4 297.8 335.4 294.5 C 333.4 291.2 331.9 287.6 331.0 283.9 C 330.2 280.3 330.5 276.5 330.4 272.7 C 330.3 269.0 330.2 265.2 330.4 261.4 C 330.7 257.7 331.3 253.9 331.8 250.2 C 332.3 246.5 333.0 242.7 333.6 239.0 C 334.2 235.3 334.8 231.6 335.5 227.8 C 336.1 224.1 336.6 220.4 337.5 216.7 C 338.4 213.0 339.5 209.4 340.7 205.8 C 342.0 202.2 343.3 198.6 344.9 195.1 C 346.5 191.6 348.3 188.1 350.4 184.9 C 352.6 181.6 355.2 178.6 357.9 175.6 C 360.5 172.6 363.4 169.8 366.4 167.1 C 369.5 164.4 372.7 161.8 376.0 159.4 C 379.4 157.0 382.9 154.7 386.5 152.6 C 390.2 150.5 393.8 148.3 397.9 146.9 C 401.9 145.6 406.4 145.3 410.7 144.5 C 415.0 143.7 419.2 142.3 423.5 142.2 C 427.8 142.1 432.1 143.3 436.4 144.0 C 440.7 144.6 445.2 145.1 449.3 146.3 C 453.4 147.5 457.3 149.3 461.0 151.3 C 464.6 153.3 468.0 155.8 471.2 158.3 C 474.3 160.9 477.4 163.7 479.8 166.8 C 482.3 169.9 484.3 173.3 486.0 176.7 Z" fill="url(#mo_pos_front)" fill-rule="evenodd" stroke="none"/>
  </g>
  <g opacity="0.60">
    <path d="M 300.9 280.6 C 302.2 284.0 301.8 287.9 302.0 291.6 C 302.2 295.4 303.0 299.3 302.3 302.9 C 301.6 306.5 299.7 310.0 297.8 313.3 C 295.9 316.6 293.3 319.7 290.9 322.8 C 288.5 326.0 286.3 329.3 283.5 332.1 C 280.7 334.9 277.5 337.7 273.9 339.7 C 270.4 341.7 266.2 343.2 262.1 344.3 C 258.0 345.5 253.6 346.1 249.3 346.6 C 245.1 347.2 240.7 347.9 236.5 347.7 C 232.2 347.5 227.9 346.3 223.7 345.3 C 219.5 344.4 215.1 343.6 211.2 342.0 C 207.4 340.4 203.7 338.2 200.5 335.7 C 197.3 333.2 194.6 330.2 192.0 327.2 C 189.5 324.1 187.4 320.8 185.2 317.6 C 183.0 314.3 180.3 311.2 178.8 307.8 C 177.3 304.3 176.9 300.5 176.3 296.9 C 175.7 293.2 174.9 289.3 175.1 285.7 C 175.2 282.0 176.2 278.3 177.3 274.8 C 178.5 271.2 180.2 267.6 182.1 264.3 C 184.0 261.0 186.2 257.7 188.8 254.7 C 191.4 251.8 194.5 249.0 197.7 246.5 C 200.9 244.0 204.4 241.5 208.2 239.8 C 211.9 238.1 216.2 237.2 220.3 236.2 C 224.5 235.3 229.0 234.1 233.2 234.1 C 237.4 234.0 241.4 234.8 245.4 235.9 C 249.5 236.9 253.5 238.7 257.5 240.3 C 261.4 241.9 265.5 243.4 269.1 245.4 C 272.6 247.5 276.0 250.0 279.0 252.7 C 282.0 255.3 284.5 258.5 287.0 261.5 C 289.6 264.6 291.9 267.7 294.2 270.9 C 296.5 274.1 299.6 277.1 300.9 280.6 Z" fill="url(#mo_neg_front)" fill-rule="evenodd" stroke="none"/>
  </g>
  <g opacity="0.60">
    <path d="M 583.0 418.2 C 584.5 421.5 583.9 425.5 584.2 429.2 C 584.6 432.9 586.1 436.9 585.3 440.3 C 584.4 443.8 581.8 447.1 579.4 450.0 C 576.9 453.0 573.6 455.6 570.3 458.0 C 567.1 460.3 563.5 463.2 559.7 464.2 C 555.8 465.2 551.3 464.3 547.1 464.0 C 542.9 463.6 538.3 463.2 534.4 462.0 C 530.4 460.8 526.7 459.0 523.4 456.8 C 520.0 454.6 516.9 451.7 514.3 448.8 C 511.7 446.0 509.0 442.9 507.7 439.5 C 506.5 436.1 507.0 432.1 506.8 428.4 C 506.6 424.7 505.6 420.9 506.7 417.5 C 507.9 414.0 511.0 411.0 513.5 408.0 C 516.0 404.9 518.5 401.8 521.5 399.2 C 524.6 396.7 527.8 393.8 531.6 392.8 C 535.5 391.7 540.3 392.7 544.6 392.8 C 548.9 392.9 553.6 392.1 557.3 393.4 C 561.1 394.7 564.1 398.1 567.1 400.7 C 570.1 403.3 573.0 406.1 575.6 409.1 C 578.3 412.0 581.6 414.8 583.0 418.2 Z" fill="url(#mo_neg_front)" fill-rule="evenodd" stroke="none"/>
  </g>
  <g opacity="0.60">
    <path d="M 459.6 333.6 C 461.9 336.8 463.7 340.4 464.9 343.9 C 466.2 347.5 466.7 351.3 467.1 355.0 C 467.6 358.7 467.7 362.6 467.4 366.3 C 467.1 370.0 466.7 373.8 465.5 377.3 C 464.3 380.9 462.4 384.4 460.3 387.7 C 458.2 391.0 455.9 394.3 452.9 397.0 C 450.0 399.7 446.2 401.9 442.5 403.9 C 438.9 405.9 434.9 407.7 430.9 409.2 C 426.9 410.6 422.7 411.7 418.5 412.8 C 414.3 413.9 410.1 415.0 405.9 415.9 C 401.6 416.9 397.4 417.8 393.1 418.4 C 388.8 419.0 384.4 419.3 380.1 419.7 C 375.7 420.2 371.4 420.7 367.0 421.0 C 362.7 421.3 358.0 421.7 353.9 421.4 C 349.8 421.2 344.2 421.5 342.3 419.3 C 340.5 417.1 342.6 412.0 342.8 408.3 C 343.1 404.6 343.2 400.7 343.7 397.0 C 344.2 393.3 345.2 389.6 345.8 385.8 C 346.4 382.1 346.5 378.3 347.4 374.6 C 348.3 371.0 349.8 367.4 351.1 363.8 C 352.4 360.2 353.6 356.6 355.2 353.1 C 356.7 349.5 358.2 346.0 360.2 342.6 C 362.2 339.3 364.6 336.0 367.3 333.2 C 370.1 330.3 373.3 327.7 376.8 325.5 C 380.3 323.3 384.3 321.6 388.3 320.1 C 392.3 318.7 396.5 317.4 400.8 316.8 C 405.0 316.2 409.5 316.3 413.9 316.3 C 418.2 316.3 422.7 316.0 426.9 316.6 C 431.2 317.1 435.5 318.4 439.5 319.8 C 443.5 321.2 447.8 322.7 451.2 325.0 C 454.5 327.3 457.3 330.5 459.6 333.6 Z" fill="url(#mo_neg_front)" fill-rule="evenodd" stroke="none"/>
  </g>
  <g opacity="0.60">
    <path d="M 292.1 371.9 C 292.9 375.6 292.6 379.5 292.8 383.3 C 293.0 387.1 293.8 391.1 293.0 394.8 C 292.2 398.5 290.0 401.9 288.0 405.4 C 286.1 408.8 283.9 412.2 281.3 415.3 C 278.8 418.4 275.9 421.5 272.6 424.0 C 269.3 426.4 265.3 428.3 261.4 430.0 C 257.4 431.8 253.2 433.1 248.9 434.2 C 244.7 435.3 240.3 436.1 236.0 436.8 C 231.6 437.4 227.1 437.6 222.7 437.9 C 218.2 438.3 213.8 438.7 209.4 438.8 C 204.9 438.8 200.4 438.7 196.0 438.4 C 191.6 438.0 187.0 437.9 182.9 436.7 C 178.8 435.6 174.9 433.4 171.3 431.2 C 167.7 429.0 164.2 426.5 161.4 423.6 C 158.5 420.7 156.3 417.3 154.3 413.9 C 152.3 410.6 150.7 406.9 149.4 403.2 C 148.2 399.6 147.3 395.8 146.7 392.1 C 146.2 388.3 146.3 384.4 146.3 380.6 C 146.3 376.8 146.3 372.9 146.7 369.1 C 147.2 365.3 148.1 361.5 149.1 357.8 C 150.0 354.1 151.0 350.3 152.6 346.8 C 154.3 343.3 156.4 339.8 159.0 336.7 C 161.6 333.7 164.8 330.8 168.2 328.4 C 171.6 326.1 175.6 324.0 179.6 322.5 C 183.6 321.0 188.0 320.0 192.3 319.2 C 196.6 318.3 201.1 317.7 205.5 317.3 C 209.9 316.9 214.4 316.8 218.8 316.7 C 223.2 316.7 227.8 316.8 232.2 317.2 C 236.5 317.7 240.9 318.2 245.1 319.4 C 249.3 320.7 253.3 322.5 257.1 324.5 C 260.9 326.5 264.5 328.8 267.7 331.4 C 270.8 334.1 273.5 337.2 275.9 340.4 C 278.4 343.6 280.4 347.1 282.3 350.5 C 284.2 354.0 285.9 357.5 287.5 361.1 C 289.2 364.7 291.2 368.2 292.1 371.9 Z" fill="url(#mo_pos_front)" fill-rule="evenodd" stroke="none"/>
  </g>
</svg>