<svg xmlns="http://www.w3.org/2000/svg" xmlns:xlink="http://www.w3.org/1999/xlink" width="800" height="469">
  <rect width="100%" height="100%" fill="#ffffff"/>
  <defs>
    <g id="a0"><radialGradient id="g0" cx=".5" cy=".5" fx=".33" fy=".33" r=".66"><stop offset="0%" stop-color="#c3c3c3"/><stop offset="100%" stop-color="#888888"/></radialGradient><circle cx="0" cy="0" r="55.9" fill="url(#g0)" stroke="#000000" stroke-width="10.4"/></g>
    <g id="a1"><radialGradient id="g1" cx=".5" cy=".5" fx=".33" fy=".33" r=".66"><stop offset="0%" stop-color="#c3c3c3"/><stop offset="100%" stop-color="#888888"/></radialGradient><circle cx="0" cy="0" r="55.9" fill="url(#g1)" stroke="#000000" stroke-width="10.4"/></g>
    <g id="a2"><radialGradient id="g2" cx=".5" cy=".5" fx=".33" fy=".33" r=".66"><stop offset="0%" stop-color="#ff5555"/><stop offset="100%" stop-color="#cc0a0a"/></radialGradient><circle cx="0" cy="0" r="50.1" fill="url(#g2)" stroke="#000000" stroke-width="10.4"/></g>
    <g id="a3"><radialGradient id="g3" cx=".5" cy=".5" fx=".33" fy=".33" r=".66"><stop offset="0%" stop-color="#ffffff"/><stop offset="100%" stop-color="#d6d6d6"/></radialGradient><circle cx="0" cy="0" r="29.4" fill="url(#g3)" stroke="#494949" stroke-width="10.4"/></g>
    <g id="a4"><radialGradient id="g4" cx=".5" cy=".5" fx=".33" fy=".33" r=".66"><stop offset="0%" stop-color="#ffffff"/><stop offset="100%" stop-color="#cccccc"/></radialGradient><circle cx="0" cy="0" r="29.4" fill="url(#g4)" stroke="#000000" stroke-width="10.4"/></g>
    <g id="a5"><radialGradient id="g5" cx=".5" cy=".5" fx=".33" fy=".33" r=".66"><stop offset="0%" stop-color="#ffffff"/><stop offset="100%" stop-color="#cccccc"/></radialGradient><circle cx="0" cy="0" r="29.4" fill="url(#g5)" stroke="#000000" stroke-width="10.4"/></g>
    <g id="a6"><radialGradient id="g6" cx=".5" cy=".5" fx=".33" fy=".33" r=".66"><stop offset="0%" stop-color="#ffffff"/><stop offset="100%" stop-color="#d5d5d5"/></radialGradient><circle cx="0" cy="0" r="29.4" fill="url(#g6)" stroke="#414141" stroke-width="10.4"/></g>
    <g id="a7"><radialGradient id="g7" cx=".5" cy=".5" fx=".33" fy=".33" r=".66"><stop offset="0%" stop-color="#ffffff"/><stop offset="100%" stop-color="#cccccc"/></radialGradient><circle cx="0" cy="0" r="29.4" fill="url(#g7)" stroke="#000000" stroke-width="10.4"/></g>
    <g id="a8"><radialGradient id="g8" cx=".5" cy=".5" fx=".33" fy=".33" r=".66"><stop offset="0%" stop-color="#ffffff"/><stop offset="100%" stop-color="#cccccc"/></radialGradient><circle cx="0" cy="0" r="29.4" fill="url(#g8)" stroke="#000000" stroke-width="10.4"/></g>
  </defs>
  <use x="171.9" y="354.9" xlink:href="#a3"/>
  <line x1="177.2" y1="341.8" x2="196.2" y2="294.5" stroke="#0a0a0a" stroke-width="26.0" stroke-linecap="round"/>
  <use x="455.2" y="97.2" xlink:href="#a6"/>
  <line x1="451.0" y1="112.5" x2="436.1" y2="167.2" stroke="#090909" stroke-width="26.0" stroke-linecap="round"/>
  <use x="564.0" y="369.7" xlink:href="#a2"/>
  <line x1="606.2" y1="353.8" x2="679.4" y2="326.2" stroke="#000000" stroke-width="26.0" stroke-linecap="round"/>
  <line x1="536.2" y1="334.1" x2="459.1" y2="235.8" stroke="#000000" stroke-width="26.0" stroke-linecap="round"/>
  <use x="704.1" y="316.9" xlink:href="#a8"/>
  <use x="428.1" y="196.3" xlink:href="#a1"/>
  <line x1="380.4" y1="212.0" x2="254.0" y2="253.8" stroke="#000000" stroke-width="26.0" stroke-linecap="round"/>
  <line x1="434.2" y1="166.9" x2="445.9" y2="111.1" stroke="#000000" stroke-width="26.0" stroke-linecap="round"/>
  <use x="206.2" y="269.6" xlink:href="#a0"/>
  <line x1="173.7" y1="231.3" x2="112.9" y2="159.5" stroke="#000000" stroke-width="26.0" stroke-linecap="round"/>
  <line x1="198.9" y1="300.3" x2="185.2" y2="357.2" stroke="#000000" stroke-width="26.0" stroke-linecap="round"/>
  <use x="95.9" y="139.3" xlink:href="#a5"/>
  <use x="181.4" y="373.3" xlink:href="#a4"/>
  <use x="449.1" y="95.7" xlink:href="#a7"/>
</svg>